<svg xmlns="http://www.w3.org/2000/svg" xmlns:xlink="http://www.w3.org/1999/xlink" contentStyleType="text/css" data-diagram-type="DESCRIPTION" height="564px" preserveAspectRatio="none" style="width:658px;height:564px;background:#FFFFFF;" version="1.1" viewBox="0 0 658 564" width="658px" zoomAndPan="magnify"><title>High Availability - Write Path</title><defs/><g><g class="title" data-source-line="5"><text fill="#000000" font-family="Verdana" font-size="22" font-weight="bold" lengthAdjust="spacing" textLength="361.7432" x="143.8503" y="35.4209">High Availability - Write Path</text></g><!--cluster cluster--><g class="cluster" data-qualified-name="cluster" data-source-line="11" id="ent0004"><rect fill="#FFFFFF" height="103" rx="2.5" ry="2.5" style="stroke:#000000;stroke-width:1;" width="416" x="12" y="327.6094"/><text fill="#000000" font-family="Verdana" font-size="14" font-weight="bold" lengthAdjust="spacing" textLength="194.2432" x="122.8784" y="342.6045">Schema Registry Cluster</text></g><!--entity sr1--><g class="entity" data-qualified-name="cluster.sr1" data-source-line="12" id="ent0005"><rect fill="#FFFFFF" height="36.2969" rx="2.5" ry="2.5" style="stroke:#000000;stroke-width:1;" width="92.9053" x="55.5" y="370.6094"/><text fill="#000000" font-family="Verdana" font-size="14" lengthAdjust="spacing" textLength="72.9053" x="65.5" y="393.6045">Instance 1</text></g><!--entity sr2--><g class="entity" data-qualified-name="cluster.sr2" data-source-line="13" id="ent0006"><rect fill="#FFFFFF" height="36.2969" rx="2.5" ry="2.5" style="stroke:#000000;stroke-width:1;" width="92.9053" x="183.5" y="370.6094"/><text fill="#000000" font-family="Verdana" font-size="14" lengthAdjust="spacing" textLength="72.9053" x="193.5" y="393.6045">Instance 2</text></g><!--entity sr3--><g class="entity" data-qualified-name="cluster.sr3" data-source-line="14" id="ent0007"><rect fill="#FFFFFF" height="36.2969" rx="2.5" ry="2.5" style="stroke:#000000;stroke-width:1;" width="92.9053" x="311.5" y="370.6094"/><text fill="#000000" font-family="Verdana" font-size="14" lengthAdjust="spacing" textLength="72.9053" x="321.5" y="393.6045">Instance 3</text></g><!--entity client--><g class="entity" data-qualified-name="client" data-source-line="7" id="ent0002"><ellipse cx="230.2075" cy="65.6094" fill="#FFFFFF" rx="8" ry="8" style="stroke:#000000;stroke-width:1;"/><path d="M230.2075,73.6094 L230.2075,100.6094 M217.2075,81.6094 L243.2075,81.6094 M230.2075,100.6094 L217.2075,115.6094 M230.2075,100.6094 L243.2075,115.6094" fill="none" style="stroke:#000000;stroke-width:1;"/><text fill="#000000" font-family="Verdana" font-size="14" lengthAdjust="spacing" textLength="106.415" x="177" y="130.6045">Kafka Producer</text></g><!--entity lb--><g class="entity" data-qualified-name="lb" data-source-line="9" id="ent0003"><path d="M174.8478,219.1458 C179.0563,214.4494 182.8375,214.5118 186.2036,220.078 C189.0001,214.3325 192.2618,213.0643 196.958,218.2006 C200.2565,213.1248 204.5171,212.1367 208.3179,217.6624 C212.0307,210.8667 216.4863,210.9679 220.7359,217.1487 C223.1661,211.5919 228.4044,210.8851 231.8822,216.0607 C236.1577,211.1075 240.0882,211.7624 243.4915,217.0496 C246.8202,211.9238 251.7033,212.5895 254.688,217.4358 C258.8896,213.236 262.5508,212.8698 265.7523,218.5553 C269.0507,214.2874 272.3091,214.1912 275.8319,218.2846 C279.7972,213.7042 284.8026,214.7646 287.3827,219.9268 C296.4028,221.273 299.6933,225.6531 295.2604,234.348 C298.694,242.699 297.4239,247.8734 287.4903,249.2588 C285.5878,255.1931 281.6673,256.0793 277.3732,251.5774 C273.0202,257.2963 269.0159,257.4879 264.4351,251.8366 C261.2665,258.2285 256.5666,257.1018 252.7468,252.5309 C250.0149,256.9307 246.0765,256.8773 243.5043,252.3652 C239.8121,259.9759 235.1291,259.1577 230.0178,253.8463 C226.3027,257.6272 222.183,256.9146 220.6727,251.5847 C217.9193,257.8729 212.4047,257.5652 208.7805,252.4966 C204.8837,257.091 199.3856,256.5955 197.566,250.348 C194.23,257.0133 188.7844,256.2284 185.3442,250.4503 C181.8374,256.0165 176.9292,256.3053 173.7746,250.104 C165.9009,246.0274 165.2997,241.3067 172.0234,235.4819 C165.4663,229.7752 165.8847,222.1692 174.8478,219.1458" fill="#FFFFFF" style="stroke:#000000;stroke-width:1;"/><text fill="#000000" font-family="Verdana" font-size="14" lengthAdjust="spacing" textLength="99.873" x="180" y="238.6045">Load Balancer</text></g><!--entity db--><g class="entity" data-qualified-name="db" data-source-line="17" id="ent0008"><path d="M143.5,495.6094 C143.5,485.6094 230.1821,485.6094 230.1821,485.6094 C230.1821,485.6094 316.8643,485.6094 316.8643,495.6094 L316.8643,537.2031 C316.8643,547.2031 230.1821,547.2031 230.1821,547.2031 C230.1821,547.2031 143.5,547.2031 143.5,537.2031 L143.5,495.6094" fill="#FFFFFF" style="stroke:#000000;stroke-width:1;"/><path d="M143.5,495.6094 C143.5,505.6094 230.1821,505.6094 230.1821,505.6094 C230.1821,505.6094 316.8643,505.6094 316.8643,495.6094" fill="none" style="stroke:#000000;stroke-width:1;"/><text fill="#000000" font-family="Verdana" font-size="14" lengthAdjust="spacing" textLength="66.8008" x="153.5" y="522.6045">Database</text><text fill="#000000" font-family="Verdana" font-size="14" lengthAdjust="spacing" textLength="153.3643" x="153.5" y="538.9014">(PostgreSQL / MySQL)</text></g><g class="entity" data-qualified-name="GMN14" data-source-line="27" id="ent0015"><path d="M452.5,353.1094 L452.5,423.6406 L651.4438,423.6406 L651.4438,363.1094 L641.4438,353.1094 L452.5,353.1094" fill="#FFFFFF" style="stroke:#000000;stroke-width:1;"/><path d="M641.4438,353.1094 L641.4438,363.1094 L651.4438,363.1094 L641.4438,353.1094" fill="#FFFFFF" style="stroke:#000000;stroke-width:1;"/><text fill="#000000" font-family="Verdana" font-size="13" font-weight="bold" lengthAdjust="spacing" textLength="142.9873" x="458.5" y="370.1763">Stateless Instances</text><text fill="#000000" font-family="Verdana" font-size="13" lengthAdjust="spacing" textLength="167.2036" x="458.5" y="385.3091">All instances are identical</text><text fill="#000000" font-family="Verdana" font-size="13" lengthAdjust="spacing" textLength="177.9438" x="458.5" y="400.4419">No leader election required</text><text fill="#000000" font-family="Verdana" font-size="13" lengthAdjust="spacing" textLength="116.1113" x="458.5" y="415.5747">Horizontal scaling</text></g><!--link client to lb--><g class="link" data-entity-1="ent0002" data-entity-2="ent0003" data-link-type="dependency" data-source-line="19" id="lnk9"><path d="M230,133.7694 C230,158.3894 230,183.7094 230,204.4194" fill="none" id="client-to-lb" style="stroke:#000000;stroke-width:1;"/><polygon fill="#000000" points="230,210.4194,234,201.4194,230,205.4194,226,201.4194,230,210.4194" style="stroke:#000000;stroke-width:1;"/><text fill="#000000" font-family="Verdana" font-size="13" lengthAdjust="spacing" textLength="223.4756" x="231" y="176.6763">POST /subjects/{subject}/versions</text></g><!--link lb to sr2--><g class="link" data-entity-1="ent0003" data-entity-2="ent0006" data-link-type="dependency" data-source-line="20" id="lnk10"><path d="M230,256.8594 C230,287.6894 230,336.7394 230,364.5394" fill="none" id="lb-to-sr2" style="stroke:#000000;stroke-width:1;"/><polygon fill="#000000" points="230,370.5394,234,361.5394,230,365.5394,226,361.5394,230,370.5394" style="stroke:#000000;stroke-width:1;"/><text fill="#000000" font-family="Verdana" font-size="13" lengthAdjust="spacing" textLength="142.7397" x="231" y="299.6763">Route to any instance</text></g><!--link sr1 to db--><g class="link" data-entity-1="ent0005" data-entity-2="ent0008" data-link-type="dependency" data-source-line="22" id="lnk11"><path d="M119.53,406.8694 C140.07,427.0894 170.1949,456.7294 195.1549,481.3094" fill="none" id="sr1-to-db" style="stroke:#000000;stroke-width:1;"/><polygon fill="#000000" points="199.43,485.5194,195.8241,476.3544,195.8675,482.0111,190.2108,482.0545,199.43,485.5194" style="stroke:#000000;stroke-width:1;"/></g><!--link sr2 to db--><g class="link" data-entity-1="ent0006" data-entity-2="ent0008" data-link-type="dependency" data-source-line="23" id="lnk12"><path d="M230,406.8694 C230,427.0894 230,454.9394 230,479.5194" fill="none" id="sr2-to-db" style="stroke:#000000;stroke-width:1;"/><polygon fill="#000000" points="230,485.5194,234,476.5194,230,480.5194,226,476.5194,230,485.5194" style="stroke:#000000;stroke-width:1;"/></g><!--link sr3 to db--><g class="link" data-entity-1="ent0007" data-entity-2="ent0008" data-link-type="dependency" data-source-line="24" id="lnk13"><path d="M340.47,406.8694 C319.93,427.0894 289.8051,456.7294 264.8451,481.3094" fill="none" id="sr3-to-db" style="stroke:#000000;stroke-width:1;"/><polygon fill="#000000" points="260.57,485.5194,269.7892,482.0545,264.1325,482.0111,264.1759,476.3544,260.57,485.5194" style="stroke:#000000;stroke-width:1;"/></g><!--link cluster to GMN14--><g class="link" data-entity-1="ent0004" data-entity-2="ent0015" data-link-type="association" data-source-line="27" id="lnk16"><path d="M26.7408,327.2268 C26.9545,326.5254 27.1746,325.8253 27.4012,325.1269 C29.2139,319.5395 31.4446,314.0625 34.1858,308.9288 C39.6681,298.6613 47.1925,289.7669 57.5,284.1094 C124.71,247.2194 329.37,261.0894 402.5,284.1094 C445.39,297.6094 486.7,328.2894 514.98,352.9294" fill="none" id="cluster-GMN14" style="stroke:#000000;stroke-width:1;stroke-dasharray:7,7;"/></g><!--SRC=[TP4_Rzj03CLtVWhMKsl0C19l7Ghapv0YIUj61RfaeUuOcVNvwDvHATGWtxsK8HjPeaM4-EFZUzG7s_2ESPz8CjIjv3qLsc5BOTiLxNEyqgG5_sx4-4q_w6wlcRCrDYJ6mi4eTua1JCm_t4YtmOjdaaIj9B415_Yhk0QkoJO05CnLPxVqj2LS5urzu393gXYIk2n0IDf7dDqfHRoaHFa8f1RWj0zdJV00X0_SIRKou5Nggvsq3ZM-0FhpPkXhhZOgujc1g-NiNU9y8ixV9LOJiO9NW4X6BLNlNq_LO_wurcfTuUR77IxnVl3tfyDCRCUSOrvSBBvuCloCw-_DJrpMlltjg-hoPQfUbyzSgcYkuDX8koN77xJteveYvG5biWJWYGwGRnYvKxawbf3Lvuh_9aDzEbxACyxdZP5nubhn6B7EvzwvIEcqeI8LHebkNG8bxtvJJ4pHh-spmTof7-jFBuMZTs-qo3_DHWchyv8xu1nnD07_0G00]--></g></svg>