<svg xmlns="http://www.w3.org/2000/svg" xmlns:xlink="http://www.w3.org/1999/xlink" contentStyleType="text/css" data-diagram-type="DESCRIPTION" height="581px" preserveAspectRatio="none" style="width:720px;height:581px;background:#FFFFFF;" version="1.1" viewBox="0 0 720 581" width="720px" zoomAndPan="magnify"><title>High Availability - Read Path</title><defs/><g><g class="title" data-source-line="5"><text fill="#000000" font-family="Verdana" font-size="22" font-weight="bold" lengthAdjust="spacing" textLength="356.1035" x="177.5237" y="35.4209">High Availability - Read Path</text></g><!--cluster cluster--><g class="cluster" data-qualified-name="cluster" data-source-line="11" id="ent0004"><rect fill="#FFFFFF" height="120" rx="2.5" ry="2.5" style="stroke:#000000;stroke-width:1;" width="501" x="12" y="327.6094"/><text fill="#000000" font-family="Verdana" font-size="14" font-weight="bold" lengthAdjust="spacing" textLength="194.2432" x="165.3784" y="342.6045">Schema Registry Cluster</text></g><!--entity sr1--><g class="entity" data-qualified-name="cluster.sr1" data-source-line="12" id="ent0005"><rect fill="#FFFFFF" height="52.5938" rx="2.5" ry="2.5" style="stroke:#000000;stroke-width:1;" width="120.7002" x="55.5" y="370.6094"/><text fill="#000000" font-family="Verdana" font-size="14" lengthAdjust="spacing" textLength="72.9053" x="65.5" y="393.6045">Instance 1</text><text fill="#000000" font-family="Verdana" font-size="14" lengthAdjust="spacing" textLength="100.7002" x="65.5" y="409.9014">+ Local Cache</text></g><!--entity sr2--><g class="entity" data-qualified-name="cluster.sr2" data-source-line="13" id="ent0006"><rect fill="#FFFFFF" height="52.5938" rx="2.5" ry="2.5" style="stroke:#000000;stroke-width:1;" width="120.7002" x="211.5" y="370.6094"/><text fill="#000000" font-family="Verdana" font-size="14" lengthAdjust="spacing" textLength="72.9053" x="221.5" y="393.6045">Instance 2</text><text fill="#000000" font-family="Verdana" font-size="14" lengthAdjust="spacing" textLength="100.7002" x="221.5" y="409.9014">+ Local Cache</text></g><!--entity sr3--><g class="entity" data-qualified-name="cluster.sr3" data-source-line="14" id="ent0007"><rect fill="#FFFFFF" height="52.5938" rx="2.5" ry="2.5" style="stroke:#000000;stroke-width:1;" width="120.7002" x="367.5" y="370.6094"/><text fill="#000000" font-family="Verdana" font-size="14" lengthAdjust="spacing" textLength="72.9053" x="377.5" y="393.6045">Instance 3</text><text fill="#000000" font-family="Verdana" font-size="14" lengthAdjust="spacing" textLength="100.7002" x="377.5" y="409.9014">+ Local Cache</text></g><!--entity client--><g class="entity" data-qualified-name="client" data-source-line="7" id="ent0002"><ellipse cx="116.1064" cy="65.6094" fill="#FFFFFF" rx="8" ry="8" style="stroke:#000000;stroke-width:1;"/><path d="M116.1064,73.6094 L116.1064,100.6094 M103.1064,81.6094 L129.1064,81.6094 M116.1064,100.6094 L103.1064,115.6094 M116.1064,100.6094 L129.1064,115.6094" fill="none" style="stroke:#000000;stroke-width:1;"/><text fill="#000000" font-family="Verdana" font-size="14" lengthAdjust="spacing" textLength="115.2129" x="58.5" y="130.6045">Kafka Consumer</text></g><!--entity lb--><g class="entity" data-qualified-name="lb" data-source-line="9" id="ent0003"><path d="M60.8478,219.1458 C65.0563,214.4494 68.8375,214.5118 72.2036,220.078 C75.0001,214.3325 78.2618,213.0643 82.958,218.2006 C86.2565,213.1248 90.5171,212.1367 94.3179,217.6624 C98.0307,210.8667 102.4863,210.9679 106.7359,217.1487 C109.1661,211.5919 114.4044,210.8851 117.8822,216.0607 C122.1577,211.1075 126.0882,211.7624 129.4915,217.0496 C132.8202,211.9238 137.7033,212.5895 140.688,217.4358 C144.8896,213.236 148.5508,212.8698 151.7523,218.5553 C155.0507,214.2874 158.3091,214.1912 161.8319,218.2846 C165.7972,213.7042 170.8026,214.7646 173.3827,219.9268 C182.4028,221.273 185.6933,225.6531 181.2604,234.348 C184.694,242.699 183.4239,247.8734 173.4903,249.2588 C171.5878,255.1931 167.6673,256.0793 163.3732,251.5774 C159.0202,257.2963 155.0159,257.4879 150.4351,251.8366 C147.2665,258.2285 142.5666,257.1018 138.7468,252.5309 C136.0149,256.9307 132.0765,256.8773 129.5043,252.3652 C125.8121,259.9759 121.1291,259.1577 116.0178,253.8463 C112.3027,257.6272 108.183,256.9146 106.6727,251.5847 C103.9193,257.8729 98.4047,257.5652 94.7805,252.4966 C90.8837,257.091 85.3856,256.5955 83.566,250.348 C80.23,257.0133 74.7844,256.2284 71.3442,250.4503 C67.8374,256.0165 62.9292,256.3053 59.7746,250.104 C51.9009,246.0274 51.2997,241.3067 58.0234,235.4819 C51.4663,229.7752 51.8847,222.1692 60.8478,219.1458" fill="#FFFFFF" style="stroke:#000000;stroke-width:1;"/><text fill="#000000" font-family="Verdana" font-size="14" lengthAdjust="spacing" textLength="99.873" x="66" y="238.6045">Load Balancer</text></g><!--entity db--><g class="entity" data-qualified-name="db" data-source-line="17" id="ent0008"><path d="M185.5,512.6094 C185.5,502.6094 272.1821,502.6094 272.1821,502.6094 C272.1821,502.6094 358.8643,502.6094 358.8643,512.6094 L358.8643,554.2031 C358.8643,564.2031 272.1821,564.2031 272.1821,564.2031 C272.1821,564.2031 185.5,564.2031 185.5,554.2031 L185.5,512.6094" fill="#FFFFFF" style="stroke:#000000;stroke-width:1;"/><path d="M185.5,512.6094 C185.5,522.6094 272.1821,522.6094 272.1821,522.6094 C272.1821,522.6094 358.8643,522.6094 358.8643,512.6094" fill="none" style="stroke:#000000;stroke-width:1;"/><text fill="#000000" font-family="Verdana" font-size="14" lengthAdjust="spacing" textLength="66.8008" x="195.5" y="539.6045">Database</text><text fill="#000000" font-family="Verdana" font-size="14" lengthAdjust="spacing" textLength="153.3643" x="195.5" y="555.9014">(PostgreSQL / MySQL)</text></g><g class="entity" data-qualified-name="GMN14" data-source-line="27" id="ent0015"><path d="M536.5,361.6094 L536.5,432.1406 L713.1509,432.1406 L713.1509,371.6094 L703.1509,361.6094 L536.5,361.6094" fill="#FFFFFF" style="stroke:#000000;stroke-width:1;"/><path d="M703.1509,361.6094 L703.1509,371.6094 L713.1509,371.6094 L703.1509,361.6094" fill="#FFFFFF" style="stroke:#000000;stroke-width:1;"/><text fill="#000000" font-family="Verdana" font-size="13" font-weight="bold" lengthAdjust="spacing" textLength="141.4194" x="542.5" y="378.6763">In-Memory Caching</text><text fill="#000000" font-family="Verdana" font-size="13" lengthAdjust="spacing" textLength="155.6509" x="542.5" y="393.8091">Schemas cached locally</text><text fill="#000000" font-family="Verdana" font-size="13" lengthAdjust="spacing" textLength="145.1138" x="542.5" y="408.9419">Cache refresh on miss</text><text fill="#000000" font-family="Verdana" font-size="13" lengthAdjust="spacing" textLength="143.3745" x="542.5" y="424.0747">Sub-millisecond reads</text></g><!--link client to lb--><g class="link" data-entity-1="ent0002" data-entity-2="ent0003" data-link-type="dependency" data-source-line="19" id="lnk9"><path d="M116,133.7694 C116,158.3894 116,183.7094 116,204.4194" fill="none" id="client-to-lb" style="stroke:#000000;stroke-width:1;"/><polygon fill="#000000" points="116,210.4194,120,201.4194,116,205.4194,112,201.4194,116,210.4194" style="stroke:#000000;stroke-width:1;"/><text fill="#000000" font-family="Verdana" font-size="13" lengthAdjust="spacing" textLength="148.1035" x="117" y="176.6763">GET /schemas/ids/{id}</text></g><!--link lb to sr1--><g class="link" data-entity-1="ent0003" data-entity-2="ent0005" data-link-type="dependency" data-source-line="20" id="lnk10"><path d="M116,256.7294 C116,286.4394 116,333.1494 116,364.5394" fill="none" id="lb-to-sr1" style="stroke:#000000;stroke-width:1;"/><polygon fill="#000000" points="116,370.5394,120,361.5394,116,365.5394,112,361.5394,116,370.5394" style="stroke:#000000;stroke-width:1;"/><text fill="#000000" font-family="Verdana" font-size="13" lengthAdjust="spacing" textLength="142.7397" x="117" y="299.6763">Route to any instance</text></g><!--link sr1 to db--><g class="link" data-entity-1="ent0005" data-entity-2="ent0008" data-link-type="dependency" data-source-line="22" id="lnk11"><path d="M145.71,423.7294 C171.7,446.1294 204.9355,474.7918 232.4055,498.4718" fill="none" id="sr1-to-db" style="stroke:#000000;stroke-width:1;"/><polygon fill="#000000" points="236.95,502.3894,232.7449,493.4834,233.1629,499.1248,227.5215,499.5428,236.95,502.3894" style="stroke:#000000;stroke-width:1;"/></g><!--link sr2 to db--><g class="link" data-entity-1="ent0006" data-entity-2="ent0008" data-link-type="dependency" data-source-line="23" id="lnk12"><path d="M272,423.7294 C272,446.1294 272,472.7094 272,496.3894" fill="none" id="sr2-to-db" style="stroke:#000000;stroke-width:1;"/><polygon fill="#000000" points="272,502.3894,276,493.3894,272,497.3894,268,493.3894,272,502.3894" style="stroke:#000000;stroke-width:1;"/></g><!--link sr3 to db--><g class="link" data-entity-1="ent0007" data-entity-2="ent0008" data-link-type="dependency" data-source-line="24" id="lnk13"><path d="M398.29,423.7294 C372.3,446.1294 339.0645,474.7918 311.5945,498.4718" fill="none" id="sr3-to-db" style="stroke:#000000;stroke-width:1;"/><polygon fill="#000000" points="307.05,502.3894,316.4785,499.5428,310.8371,499.1248,311.2551,493.4834,307.05,502.3894" style="stroke:#000000;stroke-width:1;"/></g><!--link cluster to GMN14--><g class="link" data-entity-1="ent0004" data-entity-2="ent0015" data-link-type="association" data-source-line="27" id="lnk16"><path d="M25.6918,327.2108 C25.8043,326.8341 25.9186,326.458 26.0347,326.0824 C26.267,325.3313 26.5068,324.5826 26.7542,323.8369 C27.249,322.3453 27.7744,320.8655 28.3321,319.4012 C29.4475,316.4726 30.6922,313.6064 32.0802,310.8342 C37.6319,299.7456 45.475,290.1619 56.5,284.1094 C98.48,261.0694 442.42,267.9594 487.5,284.1094 C530.26,299.4294 569.25,334.4094 594.7,361.4294" fill="none" id="cluster-GMN14" style="stroke:#000000;stroke-width:1;stroke-dasharray:7,7;"/></g><!--SRC=[TL71Rjim3BtpAxYSrWn6qERMmu0j6xPYAT0sE_P2IufDH1O3YTvW5FttKbxQzT3wuWVnlIU-fm_QXo7WCH8dA0TEHyeqO4lkq6KPazz8b8n_UzRmQkvaE4eAINSwnO0vEANKnG2Wh7RmaxiUl_mXZjHoP9smmRj07cz8Um1oQgQBNxG_46uabN48UO5Kq4KsLm0NPVIus8fflbAav4w4s0AyN8UBdRFzoRmxBfedtCInw8lNZF41qBvNegjKj3hY-NtwX5jn5753vZJBIZv_Lt3njk3YNS7wRS4Q7W4yARLKZFxjXExJnnifskMmkztY2gyd-v_D6j_MKcevs3IVhGQyn1_VV-Egp0sK5VkoUc3_23Qg38jXb3iPDQ0AKfgGJri1r64bcQjj_n-kdo4aCLssPrIK_NEL5dEvl4hDTHYabcs9E7NBfPt_UmWhlQRq66laEDbWZctTx7CeFKh2WKkfWh5j1ewHIt2Il3785mY6wjNm1000]--></g></svg>