<svg xmlns="http://www.w3.org/2000/svg" xmlns:xlink="http://www.w3.org/1999/xlink" contentStyleType="text/css" data-diagram-type="DESCRIPTION" height="749px" preserveAspectRatio="none" style="width:603px;height:749px;background:#FFFFFF;" version="1.1" viewBox="0 0 603 749" width="603px" zoomAndPan="magnify"><title>Single Instance Architecture</title><defs/><g><g class="title" data-source-line="5"><text fill="#000000" font-family="Verdana" font-size="22" font-weight="bold" lengthAdjust="spacing" textLength="353.0527" x="120.5215" y="35.4209">Single Instance Architecture</text></g><!--cluster sr--><g class="cluster" data-qualified-name="sr" data-source-line="10" id="ent0004"><rect fill="#FFFFFF" height="504.5" rx="2.5" ry="2.5" style="stroke:#000000;stroke-width:1;" width="372" x="12" y="219.6094"/><text fill="#000000" font-family="Verdana" font-size="14" font-weight="bold" lengthAdjust="spacing" textLength="132.9043" x="131.5479" y="234.6045">Schema Registry</text></g><!--cluster db--><g class="cluster" data-qualified-name="db" data-source-line="18" id="ent0010"><path d="M416,591.1094 C416,581.1094 491,581.1094 491,581.1094 C491,581.1094 566,581.1094 566,591.1094 L566,722.1094 C566,732.1094 491,732.1094 491,732.1094 C491,732.1094 416,732.1094 416,722.1094 L416,591.1094" fill="#FFFFFF" style="stroke:#000000;stroke-width:1;"/><path d="M416,591.1094 C416,601.1094 491,601.1094 491,601.1094 C491,601.1094 566,601.1094 566,591.1094" fill="none" style="stroke:#000000;stroke-width:1;"/><text fill="#000000" font-family="Verdana" font-size="14" font-weight="bold" lengthAdjust="spacing" textLength="134.3467" x="423.8267" y="616.1045">Storage Backend</text></g><!--entity api--><g class="entity" data-qualified-name="sr.api" data-source-line="11" id="ent0005"><rect fill="#FFFFFF" height="36.2969" rx="2.5" ry="2.5" style="stroke:#000000;stroke-width:1;" width="82.6719" x="141.5" y="262.6094"/><text fill="#000000" font-family="Verdana" font-size="14" lengthAdjust="spacing" textLength="62.6719" x="151.5" y="285.6045">HTTP API</text></g><!--entity auth--><g class="entity" data-qualified-name="sr.auth" data-source-line="12" id="ent0006"><rect fill="#FFFFFF" height="36.2969" rx="2.5" ry="2.5" style="stroke:#000000;stroke-width:1;" width="108.1699" x="51" y="385.1094"/><text fill="#000000" font-family="Verdana" font-size="14" lengthAdjust="spacing" textLength="88.1699" x="61" y="408.1045">Auth Module</text></g><!--entity parser--><g class="entity" data-qualified-name="sr.parser" data-source-line="13" id="ent0007"><rect fill="#FFFFFF" height="52.5938" rx="2.5" ry="2.5" style="stroke:#000000;stroke-width:1;" width="166.5557" x="43.5" y="647.1094"/><text fill="#000000" font-family="Verdana" font-size="14" lengthAdjust="spacing" textLength="105.1777" x="53.5" y="670.1045">Schema Parser</text><text fill="#000000" font-family="Verdana" font-size="14" lengthAdjust="spacing" textLength="146.5557" x="53.5" y="686.4014">(Avro/Protobuf/JSON)</text></g><!--entity compat--><g class="entity" data-qualified-name="sr.compat" data-source-line="14" id="ent0008"><rect fill="#FFFFFF" height="52.5938" rx="2.5" ry="2.5" style="stroke:#000000;stroke-width:1;" width="113.1533" x="245.5" y="647.1094"/><text fill="#000000" font-family="Verdana" font-size="14" lengthAdjust="spacing" textLength="93.1533" x="255.5" y="670.1045">Compatibility</text><text fill="#000000" font-family="Verdana" font-size="14" lengthAdjust="spacing" textLength="57.4355" x="255.5" y="686.4014">Checker</text></g><!--entity core--><g class="entity" data-qualified-name="sr.core" data-source-line="15" id="ent0009"><rect fill="#FFFFFF" height="36.2969" rx="2.5" ry="2.5" style="stroke:#000000;stroke-width:1;" width="115.1016" x="170.5" y="482.1094"/><text fill="#000000" font-family="Verdana" font-size="14" lengthAdjust="spacing" textLength="95.1016" x="180.5" y="505.1045">Registry Core</text></g><!--entity storage--><g class="entity" data-qualified-name="db.storage" data-source-line="19" id="ent0011"><rect fill="#FFFFFF" height="85.1875" rx="2.5" ry="2.5" style="stroke:#000000;stroke-width:1;" width="112.3877" x="432" y="631.1094"/><text fill="#000000" font-family="Verdana" font-size="14" lengthAdjust="spacing" textLength="80.7529" x="442" y="654.1045">PostgreSQL</text><text fill="#000000" font-family="Verdana" font-size="14" lengthAdjust="spacing" textLength="66.8418" x="442" y="670.4014">or MySQL</text><text fill="#000000" font-family="Verdana" font-size="14" lengthAdjust="spacing" textLength="92.3877" x="442" y="686.6982">or Cassandra</text><text fill="#000000" font-family="Verdana" font-size="14" lengthAdjust="spacing" textLength="75.708" x="442" y="702.9951">or Memory</text></g><!--entity client--><g class="entity" data-qualified-name="client" data-source-line="7" id="ent0002"><ellipse cx="108.7598" cy="65.6094" fill="#FFFFFF" rx="8" ry="8" style="stroke:#000000;stroke-width:1;"/><path d="M108.7598,73.6094 L108.7598,100.6094 M95.7598,81.6094 L121.7598,81.6094 M108.7598,100.6094 L95.7598,115.6094 M108.7598,100.6094 L121.7598,115.6094" fill="none" style="stroke:#000000;stroke-width:1;"/><text fill="#000000" font-family="Verdana" font-size="14" lengthAdjust="spacing" textLength="182.5195" x="17.5" y="130.6045">Kafka Producer/Consumer</text></g><!--entity admin--><g class="entity" data-qualified-name="admin" data-source-line="8" id="ent0003"><ellipse cx="257.9321" cy="65.6094" fill="#FFFFFF" rx="8" ry="8" style="stroke:#000000;stroke-width:1;"/><path d="M257.9321,73.6094 L257.9321,100.6094 M244.9321,81.6094 L270.9321,81.6094 M257.9321,100.6094 L244.9321,115.6094 M257.9321,100.6094 L270.9321,115.6094" fill="none" style="stroke:#000000;stroke-width:1;"/><text fill="#000000" font-family="Verdana" font-size="14" lengthAdjust="spacing" textLength="44.8643" x="235.5" y="130.6045">Admin</text></g><g class="entity" data-qualified-name="GMN20" data-source-line="33" id="ent0021"><path d="M408,253.1094 L408,308.5078 L596.0957,308.5078 L596.0957,263.1094 L586.0957,253.1094 L408,253.1094" fill="#FFFFFF" style="stroke:#000000;stroke-width:1;"/><path d="M586.0957,253.1094 L586.0957,263.1094 L596.0957,263.1094 L586.0957,253.1094" fill="#FFFFFF" style="stroke:#000000;stroke-width:1;"/><text fill="#000000" font-family="Verdana" font-size="13" lengthAdjust="spacing" textLength="167.0957" x="414" y="270.1763">Single binary deployment</text><text fill="#000000" font-family="Verdana" font-size="13" lengthAdjust="spacing" textLength="166.2769" x="414" y="285.3091">~50MB memory footprint</text><text fill="#000000" font-family="Verdana" font-size="13" lengthAdjust="spacing" textLength="142.5747" x="414" y="300.4419">No Kafka dependency</text></g><!--link client to api--><g class="link" data-entity-1="ent0002" data-entity-2="ent0005" data-link-type="dependency" data-source-line="22" id="lnk12"><path d="M98.79,134.0694 C95.69,154.2394 96,178.3694 109,195.6094 C116.79,205.9394 126.72,195.7494 137,203.6094 C156.85,218.7794 167.7606,239.613 174.7406,256.963" fill="none" id="client-to-api" style="stroke:#000000;stroke-width:1;"/><polygon fill="#000000" points="176.98,262.5294,177.3318,252.6868,175.1138,257.8907,169.9099,255.6727,176.98,262.5294" style="stroke:#000000;stroke-width:1;"/><text fill="#000000" font-family="Verdana" font-size="13" lengthAdjust="spacing" textLength="58.1382" x="133.0198" y="176.6763">REST API</text><text fill="#000000" font-family="Verdana" font-size="13" lengthAdjust="spacing" textLength="104.1777" x="110" y="191.8091">(Schema CRUD)</text></g><!--link admin to api--><g class="link" data-entity-1="ent0003" data-entity-2="ent0005" data-link-type="dependency" data-source-line="23" id="lnk13"><path d="M243.46,134.0194 C236.24,152.6294 227.31,175.3494 219,195.6094 C209.49,218.7994 200.3991,239.8599 193.0091,256.7999" fill="none" id="admin-to-api" style="stroke:#000000;stroke-width:1;"/><polygon fill="#000000" points="190.61,262.2994,197.875,255.6496,192.6093,257.7165,190.5424,252.4507,190.61,262.2994" style="stroke:#000000;stroke-width:1;"/><text fill="#000000" font-family="Verdana" font-size="13" lengthAdjust="spacing" textLength="66.3584" x="253.1284" y="176.6763">Admin API</text><text fill="#000000" font-family="Verdana" font-size="13" lengthAdjust="spacing" textLength="106.6152" x="233" y="191.8091">(Users/API Keys)</text></g><!--link api to auth--><g class="link" data-entity-1="ent0005" data-entity-2="ent0006" data-link-type="dependency" data-source-line="25" id="lnk14"><path d="M166.14,298.9694 C156.28,309.6794 144.05,324.0294 135,338.1094 C125.38,353.0794 119.3023,366.0663 113.8723,379.3363" fill="none" id="api-to-auth" style="stroke:#000000;stroke-width:1;"/><polygon fill="#000000" points="111.6,384.8894,118.7105,378.0746,113.4936,380.2618,111.3064,375.0449,111.6,384.8894" style="stroke:#000000;stroke-width:1;"/><text fill="#000000" font-family="Verdana" font-size="13" lengthAdjust="spacing" textLength="83.624" x="136" y="351.1763">Authenticate</text></g><!--link auth to core--><g class="link" data-entity-1="ent0006" data-entity-2="ent0009" data-link-type="dependency" data-source-line="26" id="lnk15"><path d="M127.27,421.3094 C149.57,438.5294 178.9115,461.1917 201.1415,478.3617" fill="none" id="auth-to-core" style="stroke:#000000;stroke-width:1;"/><polygon fill="#000000" points="205.89,482.0294,201.2123,473.3622,201.9329,478.973,196.3221,479.6936,205.89,482.0294" style="stroke:#000000;stroke-width:1;"/></g><!--link api to core--><g class="link" data-entity-1="ent0005" data-entity-2="ent0009" data-link-type="dependency" data-source-line="27" id="lnk16"><path d="M199.77,298.8394 C208.78,309.2894 219.03,323.4194 224,338.1094 C240.94,388.1694 235.8913,446.1287 231.6413,476.1387" fill="none" id="api-to-core" style="stroke:#000000;stroke-width:1;"/><polygon fill="#000000" points="230.8,482.0794,236.0225,473.7292,231.5011,477.1288,228.1015,472.6074,230.8,482.0794" style="stroke:#000000;stroke-width:1;"/><text fill="#000000" font-family="Verdana" font-size="13" lengthAdjust="spacing" textLength="127.8672" x="237" y="407.6763">Schema Operations</text></g><!--link core to parser--><g class="link" data-entity-1="ent0009" data-entity-2="ent0007" data-link-type="dependency" data-source-line="28" id="lnk17"><path d="M170.26,517.3594 C155.37,524.3794 141.02,534.2794 132,548.1094 C112.74,577.6494 114.9051,614.1364 119.8051,641.0464" fill="none" id="core-to-parser" style="stroke:#000000;stroke-width:1;"/><polygon fill="#000000" points="120.88,646.9494,123.203,637.3784,119.9843,642.0303,115.3324,638.8115,120.88,646.9494" style="stroke:#000000;stroke-width:1;"/><text fill="#000000" font-family="Verdana" font-size="13" lengthAdjust="spacing" textLength="107.7197" x="133" y="561.1763">Parse &amp; Validate</text></g><!--link core to compat--><g class="link" data-entity-1="ent0009" data-entity-2="ent0008" data-link-type="dependency" data-source-line="29" id="lnk18"><path d="M235.37,518.1794 C248.42,548.4294 273.2822,606.0606 288.5922,641.5306" fill="none" id="core-to-compat" style="stroke:#000000;stroke-width:1;"/><polygon fill="#000000" points="290.97,647.0394,291.0759,637.1911,288.9885,642.4488,283.7309,640.3614,290.97,647.0394" style="stroke:#000000;stroke-width:1;"/><text fill="#000000" font-family="Verdana" font-size="13" lengthAdjust="spacing" textLength="130.6221" x="255" y="561.1763">Check Compatibility</text></g><!--link core to storage--><g class="link" data-entity-1="ent0009" data-entity-2="ent0011" data-link-type="dependency" data-source-line="30" id="lnk19"><path d="M285.7,508.0794 C319.56,514.3494 361.86,526.1194 394,548.1094 C424.85,569.2094 446.663,598.5944 463.073,625.9444" fill="none" id="core-to-storage" style="stroke:#000000;stroke-width:1;"/><polygon fill="#000000" points="466.16,631.0894,464.9595,621.314,463.5875,626.8019,458.0996,625.4299,466.16,631.0894" style="stroke:#000000;stroke-width:1;"/><text fill="#000000" font-family="Verdana" font-size="13" lengthAdjust="spacing" textLength="93.7993" x="414" y="561.1763">Store/Retrieve</text></g><!--link sr to GMN20--><g class="link" data-entity-1="ent0004" data-entity-2="ent0021" data-link-type="association" data-source-line="33" id="lnk22"><path d="M17.7973,219.3797 C17.8238,219.1916 17.8508,219.0034 17.8782,218.8153 C17.9329,218.4391 17.9893,218.063 18.0474,217.687 C18.2797,216.1832 18.5393,214.6818 18.8282,213.1866 C19.9836,207.206 21.6077,201.3252 23.8345,195.787 C28.2881,184.7106 35.1525,175.0044 45.5,168.6094 C104.67,132.0394 292.73,145.9794 358.5,168.6094 C406.76,185.2094 451.24,225.4394 477.5,252.8794" fill="none" id="sr-GMN20" style="stroke:#000000;stroke-width:1;stroke-dasharray:7,7;"/></g><!--SRC=[PPF1ajCm38RlVWhH0qCFE-N2XGCptS0CozBTq7GvzQ8uQk9fOcTiPPaC0y-Ex2HbARb4bZvBqI_b5JVK4VGj6gl2sTWUFNPGeZxNtWssobphFFne3DEBk7PTxonPBdXi2JnfHbktf1GR5aTXuWdkR12_9jXw7JDe7hmmg5bohkxnT4R8lQi6JNwJEHk6ZlmAC81kZMHVo6tL6Ply62sbBWLXLMZf065FjGdinqG53pyLo7FvJbXzFXnosEPtKvhUNCUt0pUmaszfQKBaVCtCjNBqWVpHlja-UxUH1jYLmsdpfNXyMAUxVGAkRsTY8flIj8R7eyqQqkUbtHIwlh3q19dpD7EYto-bAcGiCSJsHI2i2MvbOcIhH5Nb_-tdBd3jgVZszMX5qjsuM1c6WBRoEFcfSuk8K-PORfe6tDnyYCh1UzX_AWvHJD5WrYJRFtrSgpIU5rmQt0m-YIHX8pRSqnZMiWQ293GgBwoyf8hHAAkMV36OEbx8U11oBldOanSzPMrK2aHYKbwOD2Du3T-nDLNCU44chGL90u1_flANchkFrSIYpPxO6tgMxRMEPUDDtJ2uawoQA3slUsaiohGgwbitTd5_0Nw_UxkxXIx92YVdkFSc1HuSJ3-0u38uidfKyeQONlq1]--></g></svg>