<svg xmlns="http://www.w3.org/2000/svg" xmlns:xlink="http://www.w3.org/1999/xlink" contentStyleType="text/css" data-diagram-type="DESCRIPTION" height="957px" preserveAspectRatio="none" style="width:1316px;height:957px;background:#FFFFFF;" version="1.1" viewBox="0 0 1316 957" width="1316px" zoomAndPan="magnify"><title>Distributed Multi-Datacenter Architecture (Cassandra)</title><defs/><g><g class="title" data-source-line="5"><text fill="#000000" font-family="Verdana" font-size="22" font-weight="bold" lengthAdjust="spacing" textLength="677.832" x="314.9102" y="35.4209">Distributed Multi-Datacenter Architecture (Cassandra)</text></g><!--cluster dc1--><g class="cluster" data-qualified-name="dc1" data-source-line="7" id="ent0002"><rect fill="#FFFFFF" height="738" rx="2.5" ry="2.5" style="stroke:#000000;stroke-width:1;" width="376" x="654" y="58.6094"/><text fill="#000000" font-family="Verdana" font-size="14" font-weight="bold" lengthAdjust="spacing" textLength="181.6445" x="751.1777" y="73.6045">Datacenter 1 (US-East)</text></g><!--cluster sr1--><g class="cluster" data-qualified-name="dc1.sr1" data-source-line="10" id="ent0004"><rect fill="#FFFFFF" height="119" rx="2.5" ry="2.5" style="stroke:#000000;stroke-width:1;" width="288" x="694" y="238.1094"/><text fill="#000000" font-family="Verdana" font-size="14" font-weight="bold" lengthAdjust="spacing" textLength="132.9043" x="771.5479" y="253.1045">Schema Registry</text><text fill="#000000" font-family="Verdana" font-size="14" font-weight="bold" lengthAdjust="spacing" textLength="56.4648" x="809.7676" y="269.4014">Cluster</text></g><!--cluster cass1--><g class="cluster" data-qualified-name="dc1.cass1" data-source-line="15" id="ent0007"><path d="M740,418.6094 C740,408.6094 861,408.6094 861,408.6094 C861,408.6094 982,408.6094 982,418.6094 L982,746.6094 C982,756.6094 861,756.6094 861,756.6094 C861,756.6094 740,756.6094 740,746.6094 L740,418.6094" fill="#FFFFFF" style="stroke:#000000;stroke-width:1;"/><path d="M740,418.6094 C740,428.6094 861,428.6094 861,428.6094 C861,428.6094 982,428.6094 982,418.6094" fill="none" style="stroke:#000000;stroke-width:1;"/><text fill="#000000" font-family="Verdana" font-size="14" font-weight="bold" lengthAdjust="spacing" textLength="82.1748" x="819.9126" y="443.6045">Cassandra</text><text fill="#000000" font-family="Verdana" font-size="14" font-weight="bold" lengthAdjust="spacing" textLength="49.1846" x="836.4077" y="459.9014">Nodes</text></g><!--cluster dc2--><g class="cluster" data-qualified-name="dc2" data-source-line="22" id="ent0011"><rect fill="#FFFFFF" height="718" rx="2.5" ry="2.5" style="stroke:#000000;stroke-width:1;" width="376" x="12" y="233.6094"/><text fill="#000000" font-family="Verdana" font-size="14" font-weight="bold" lengthAdjust="spacing" textLength="187.5713" x="106.2144" y="248.6045">Datacenter 2 (US-West)</text></g><!--cluster sr2--><g class="cluster" data-qualified-name="dc2.sr2" data-source-line="25" id="ent0013"><rect fill="#FFFFFF" height="119" rx="2.5" ry="2.5" style="stroke:#000000;stroke-width:1;" width="288" x="52" y="423.6094"/><text fill="#000000" font-family="Verdana" font-size="14" font-weight="bold" lengthAdjust="spacing" textLength="132.9043" x="129.5479" y="438.6045">Schema Registry</text><text fill="#000000" font-family="Verdana" font-size="14" font-weight="bold" lengthAdjust="spacing" textLength="56.4648" x="167.7676" y="454.9014">Cluster</text></g><!--cluster cass2--><g class="cluster" data-qualified-name="dc2.cass2" data-source-line="30" id="ent0016"><path d="M98,632.6094 C98,622.6094 219,622.6094 219,622.6094 C219,622.6094 340,622.6094 340,632.6094 L340,901.6094 C340,911.6094 219,911.6094 219,911.6094 C219,911.6094 98,911.6094 98,901.6094 L98,632.6094" fill="#FFFFFF" style="stroke:#000000;stroke-width:1;"/><path d="M98,632.6094 C98,642.6094 219,642.6094 219,642.6094 C219,642.6094 340,642.6094 340,632.6094" fill="none" style="stroke:#000000;stroke-width:1;"/><text fill="#000000" font-family="Verdana" font-size="14" font-weight="bold" lengthAdjust="spacing" textLength="82.1748" x="177.9126" y="657.6045">Cassandra</text><text fill="#000000" font-family="Verdana" font-size="14" font-weight="bold" lengthAdjust="spacing" textLength="49.1846" x="194.4077" y="673.9014">Nodes</text></g><!--entity clients1--><g class="entity" data-qualified-name="dc1.clients1" data-source-line="8" id="ent0003"><ellipse cx="701.9121" cy="110.6094" fill="#FFFFFF" rx="8" ry="8" style="stroke:#000000;stroke-width:1;"/><path d="M701.9121,118.6094 L701.9121,145.6094 M688.9121,126.6094 L714.9121,126.6094 M701.9121,145.6094 L688.9121,160.6094 M701.9121,145.6094 L714.9121,160.6094" fill="none" style="stroke:#000000;stroke-width:1;"/><text fill="#000000" font-family="Verdana" font-size="14" lengthAdjust="spacing" textLength="47.8242" x="678" y="175.6045">Clients</text></g><!--entity sr1a--><g class="entity" data-qualified-name="dc1.sr1.sr1a" data-source-line="11" id="ent0005"><rect fill="#FFFFFF" height="36.2969" rx="2.5" ry="2.5" style="stroke:#000000;stroke-width:1;" width="92.9053" x="737.5" y="297.1094"/><text fill="#000000" font-family="Verdana" font-size="14" lengthAdjust="spacing" textLength="72.9053" x="747.5" y="320.1045">Instance 1</text></g><!--entity sr1b--><g class="entity" data-qualified-name="dc1.sr1.sr1b" data-source-line="12" id="ent0006"><rect fill="#FFFFFF" height="36.2969" rx="2.5" ry="2.5" style="stroke:#000000;stroke-width:1;" width="92.9053" x="865.5" y="297.1094"/><text fill="#000000" font-family="Verdana" font-size="14" lengthAdjust="spacing" textLength="72.9053" x="875.5" y="320.1045">Instance 2</text></g><!--entity c1a--><g class="entity" data-qualified-name="dc1.cass1.c1a" data-source-line="16" id="ent0008"><rect fill="#FFFFFF" height="36.2969" rx="2.5" ry="2.5" style="stroke:#000000;stroke-width:1;" width="69.8955" x="783" y="482.6094"/><text fill="#000000" font-family="Verdana" font-size="14" lengthAdjust="spacing" textLength="49.8955" x="793" y="505.6045">Node 1</text></g><!--entity c1b--><g class="entity" data-qualified-name="dc1.cass1.c1b" data-source-line="17" id="ent0009"><rect fill="#FFFFFF" height="36.2969" rx="2.5" ry="2.5" style="stroke:#000000;stroke-width:1;" width="69.8955" x="888" y="482.6094"/><text fill="#000000" font-family="Verdana" font-size="14" lengthAdjust="spacing" textLength="49.8955" x="898" y="505.6045">Node 2</text></g><!--entity c1c--><g class="entity" data-qualified-name="dc1.cass1.c1c" data-source-line="18" id="ent0010"><rect fill="#FFFFFF" height="36.2969" rx="2.5" ry="2.5" style="stroke:#000000;stroke-width:1;" width="69.8955" x="783" y="696.6094"/><text fill="#000000" font-family="Verdana" font-size="14" lengthAdjust="spacing" textLength="49.8955" x="793" y="719.6045">Node 3</text></g><!--entity clients2--><g class="entity" data-qualified-name="dc2.clients2" data-source-line="23" id="ent0012"><ellipse cx="59.9121" cy="285.6094" fill="#FFFFFF" rx="8" ry="8" style="stroke:#000000;stroke-width:1;"/><path d="M59.9121,293.6094 L59.9121,320.6094 M46.9121,301.6094 L72.9121,301.6094 M59.9121,320.6094 L46.9121,335.6094 M59.9121,320.6094 L72.9121,335.6094" fill="none" style="stroke:#000000;stroke-width:1;"/><text fill="#000000" font-family="Verdana" font-size="14" lengthAdjust="spacing" textLength="47.8242" x="36" y="350.6045">Clients</text></g><!--entity sr2a--><g class="entity" data-qualified-name="dc2.sr2.sr2a" data-source-line="26" id="ent0014"><rect fill="#FFFFFF" height="36.2969" rx="2.5" ry="2.5" style="stroke:#000000;stroke-width:1;" width="92.9053" x="95.5" y="482.6094"/><text fill="#000000" font-family="Verdana" font-size="14" lengthAdjust="spacing" textLength="72.9053" x="105.5" y="505.6045">Instance 1</text></g><!--entity sr2b--><g class="entity" data-qualified-name="dc2.sr2.sr2b" data-source-line="27" id="ent0015"><rect fill="#FFFFFF" height="36.2969" rx="2.5" ry="2.5" style="stroke:#000000;stroke-width:1;" width="92.9053" x="223.5" y="482.6094"/><text fill="#000000" font-family="Verdana" font-size="14" lengthAdjust="spacing" textLength="72.9053" x="233.5" y="505.6045">Instance 2</text></g><!--entity c2a--><g class="entity" data-qualified-name="dc2.cass2.c2a" data-source-line="31" id="ent0017"><rect fill="#FFFFFF" height="36.2969" rx="2.5" ry="2.5" style="stroke:#000000;stroke-width:1;" width="69.8955" x="141" y="696.6094"/><text fill="#000000" font-family="Verdana" font-size="14" lengthAdjust="spacing" textLength="49.8955" x="151" y="719.6045">Node 1</text></g><!--entity c2b--><g class="entity" data-qualified-name="dc2.cass2.c2b" data-source-line="32" id="ent0018"><rect fill="#FFFFFF" height="36.2969" rx="2.5" ry="2.5" style="stroke:#000000;stroke-width:1;" width="69.8955" x="246" y="696.6094"/><text fill="#000000" font-family="Verdana" font-size="14" lengthAdjust="spacing" textLength="49.8955" x="256" y="719.6045">Node 2</text></g><!--entity c2c--><g class="entity" data-qualified-name="dc2.cass2.c2c" data-source-line="33" id="ent0019"><rect fill="#FFFFFF" height="36.2969" rx="2.5" ry="2.5" style="stroke:#000000;stroke-width:1;" width="69.8955" x="141" y="851.6094"/><text fill="#000000" font-family="Verdana" font-size="14" lengthAdjust="spacing" textLength="49.8955" x="151" y="874.6045">Node 3</text></g><g class="entity" data-qualified-name="GMN27" data-source-line="48" id="ent0028"><path d="M1054.5,279.6094 L1054.5,350.1406 L1309.6523,350.1406 L1309.6523,289.6094 L1299.6523,279.6094 L1054.5,279.6094" fill="#FFFFFF" style="stroke:#000000;stroke-width:1;"/><path d="M1299.6523,279.6094 L1299.6523,289.6094 L1309.6523,289.6094 L1299.6523,279.6094" fill="#FFFFFF" style="stroke:#000000;stroke-width:1;"/><text fill="#000000" font-family="Verdana" font-size="13" font-weight="bold" lengthAdjust="spacing" textLength="212.5322" x="1060.5" y="296.6763">LOCAL_QUORUM Consistency</text><text fill="#000000" font-family="Verdana" font-size="13" lengthAdjust="spacing" textLength="167.5083" x="1060.5" y="311.8091">- Reads/writes local to DC</text><text fill="#000000" font-family="Verdana" font-size="13" lengthAdjust="spacing" textLength="196.6187" x="1060.5" y="326.9419">- Async replication across DCs</text><text fill="#000000" font-family="Verdana" font-size="13" lengthAdjust="spacing" textLength="234.1523" x="1060.5" y="342.0747">- Tunable consistency per operation</text></g><g class="entity" data-qualified-name="GMN30" data-source-line="55" id="ent0031"><path d="M412,465.1094 L412,535.6406 L630.2725,535.6406 L630.2725,475.1094 L620.2725,465.1094 L412,465.1094" fill="#FFFFFF" style="stroke:#000000;stroke-width:1;"/><path d="M620.2725,465.1094 L620.2725,475.1094 L630.2725,475.1094 L620.2725,465.1094" fill="#FFFFFF" style="stroke:#000000;stroke-width:1;"/><text fill="#000000" font-family="Verdana" font-size="13" font-weight="bold" lengthAdjust="spacing" textLength="133.104" x="418" y="482.1763">Disaster Recovery</text><text fill="#000000" font-family="Verdana" font-size="13" lengthAdjust="spacing" textLength="170.479" x="418" y="497.3091">- Active-Active across DCs</text><text fill="#000000" font-family="Verdana" font-size="13" lengthAdjust="spacing" textLength="128.3813" x="418" y="512.4419">- Automatic failover</text><text fill="#000000" font-family="Verdana" font-size="13" lengthAdjust="spacing" textLength="197.2725" x="418" y="527.5747">- Zero data loss with QUORUM</text></g><!--link clients1 to sr1--><g class="link" data-entity-1="ent0003" data-entity-2="ent0004" data-link-type="dependency" data-source-line="37" id="lnk20"><path d="M702,178.6494 C702,191.1694 702,205.7313 702,220.5717 C702,224.2818 702,228.0094 702,231.7268 C702,233.5855 702,235.4416 702,237.2918 C702,237.5231 702,231.7542 702,231.9853" fill="none" id="clients1-to-sr1" style="stroke:#000000;stroke-width:1;"/><polygon fill="#000000" points="702,237.9853,706,228.9853,702,232.9853,698,228.9853,702,237.9853" style="stroke:#000000;stroke-width:1;"/></g><!--link clients2 to sr2--><g class="link" data-entity-1="ent0012" data-entity-2="ent0013" data-link-type="dependency" data-source-line="38" id="lnk21"><path d="M60,353.6894 C60,366.8994 60,382.445 60,398.3766 C60,406.3423 60,414.4046 60,422.3196 C60,422.567 60,416.8142 60,417.0612" fill="none" id="clients2-to-sr2" style="stroke:#000000;stroke-width:1;"/><polygon fill="#000000" points="60,423.0612,64,414.0612,60,418.0612,56,414.0612,60,423.0612" style="stroke:#000000;stroke-width:1;"/></g><!--link sr1a to cass1--><g class="link" data-entity-1="ent0005" data-entity-2="ent0007" data-link-type="dependency" data-source-line="40" id="lnk22"><path d="M779.94,333.3794 C776.35,348.8594 771.08,372.1994 767,392.6094 C766.4175,395.5231 765.8348,398.4834 765.254,401.4733 C764.9637,402.9683 764.6738,404.4707 764.3847,405.9785 C764.2402,406.7324 765.219,401.5937 765.0749,402.3499" fill="none" id="sr1a-to-cass1" style="stroke:#000000;stroke-width:1;"/><polygon fill="#000000" points="763.9517,408.2439,769.5657,400.1517,764.8877,403.3323,761.7071,398.6542,763.9517,408.2439" style="stroke:#000000;stroke-width:1;"/></g><!--link sr1b to cass1--><g class="link" data-entity-1="ent0006" data-entity-2="ent0007" data-link-type="dependency" data-source-line="41" id="lnk23"><path d="M897.12,333.3294 C885.11,346.1494 867.12,363.1094 848,373.1094 C831.59,381.6894 779.69,379.1294 767,392.6094 C762.9263,396.9369 759.5673,401.8194 756.809,407.0548 C756.6366,407.382 756.4666,407.7106 756.2989,408.0405 C756.215,408.2055 758.8124,403.0029 758.7297,403.1685" fill="none" id="sr1b-to-cass1" style="stroke:#000000;stroke-width:1;"/><polygon fill="#000000" points="756.049,408.5364,763.6486,402.2717,758.2829,404.0632,756.4915,398.6975,756.049,408.5364" style="stroke:#000000;stroke-width:1;"/></g><!--link sr2a to cass2--><g class="link" data-entity-1="ent0014" data-entity-2="ent0016" data-link-type="dependency" data-source-line="42" id="lnk24"><path d="M139.05,518.9594 C136.935,531.4194 133.8594,549.535 130.4241,569.7681 C128.7064,579.8847 126.8988,590.5306 125.0764,601.2637 C124.1653,606.6302 123.2504,612.0185 122.3412,617.3733 C122.1139,618.712 121.8869,620.0486 121.6605,621.3822 C121.6039,621.7157 122.5517,616.1335 122.4951,616.4666" fill="none" id="sr2a-to-cass2" style="stroke:#000000;stroke-width:1;"/><polygon fill="#000000" points="121.4907,622.3819,126.9409,614.1785,122.3277,617.4525,119.0537,612.8393,121.4907,622.3819" style="stroke:#000000;stroke-width:1;"/></g><!--link sr2b to cass2--><g class="link" data-entity-1="ent0015" data-entity-2="ent0016" data-link-type="dependency" data-source-line="43" id="lnk25"><path d="M252.58,518.7994 C240.13,530.6494 222.7,546.3994 206,558.6094 C204.94,559.3794 125.74,605.5394 125,606.6094 C121.6163,611.4944 121.1416,611.2826 118.765,616.8264" fill="none" id="sr2b-to-cass2" style="stroke:#000000;stroke-width:1;"/><polygon fill="#000000" points="116.4009,622.341,123.6234,615.6452,118.371,617.7455,116.2706,612.493,116.4009,622.341" style="stroke:#000000;stroke-width:1;"/></g><!--link cass1 to cass2--><g class="link" data-entity-1="ent0007" data-entity-2="ent0016" data-link-type="dependency" data-source-line="45" id="lnk26"><path d="M735.0197,511.4048 C734.3545,511.8962 738.2295,509.0252 737.495,509.5608 C731.6194,513.8453 723.5775,519.4825 714.1425,525.5081 C695.2725,537.5594 670.83,551.1644 647,558.6094 C633.1,562.9494 135.72,596.7594 125,606.6094 C120.625,610.6319 117.0391,615.2845 114.1142,620.3514 C113.7486,620.9847 116.2215,616.3329 115.8763,616.9788" fill="none" id="cass1-cass2" style="stroke:#000000;stroke-width:1;"/><polygon fill="#000000" points="739.8431,507.8362,730.229,509.9735,735.8236,510.81,734.9871,516.4047,739.8431,507.8362" style="stroke:#000000;stroke-width:1;"/><polygon fill="#000000" points="113.0482,622.2704,120.8182,616.2184,115.405,617.8607,113.7626,612.4475,113.0482,622.2704" style="stroke:#000000;stroke-width:1;"/><text fill="#000000" font-family="Verdana" font-size="13" lengthAdjust="spacing" textLength="59.6997" x="563.4111" y="579.6763">Cross-DC</text><text fill="#000000" font-family="Verdana" font-size="13" lengthAdjust="spacing" textLength="72.522" x="557" y="594.8091">Replication</text></g><!--link dc1 to GMN27--><g class="link" data-entity-1="ent0002" data-entity-2="ent0028" data-link-type="association" data-source-line="48" id="lnk29"><path d="M1030.2981,150.0822 C1030.4015,150.194 1030.5059,150.3068 1030.611,150.4205 C1030.8213,150.6479 1031.0351,150.879 1031.2521,151.1137 C1032.9887,152.9913 1034.9396,155.1006 1037.0784,157.4131 C1045.6338,166.6631 1057.1963,179.1644 1070.08,193.0944 C1095.8475,220.9544 1126.9,254.5294 1149.75,279.2394" fill="none" id="dc1-GMN27" style="stroke:#000000;stroke-width:1;stroke-dasharray:7,7;"/></g><!--link dc2 to GMN30--><g class="link" data-entity-1="ent0011" data-entity-2="ent0031" data-link-type="association" data-source-line="55" id="lnk32"><path d="M388.0495,326.5874 C388.1459,326.713 388.2432,326.8395 388.3411,326.967 C389.9087,329.0071 391.6693,331.2985 393.5989,333.8097 C401.3172,343.8544 411.7381,357.4156 423.3138,372.4794 C446.465,402.6069 474.235,438.7444 494.24,464.7794" fill="none" id="dc2-GMN30" style="stroke:#000000;stroke-width:1;stroke-dasharray:7,7;"/></g><!--SRC=[bLHDQnin4BtlhvZwb1YMOlLMIi6iUoWa3RLh2iKGPcSLMqIM5aaROqh-UqVQ3szBN2Txi3qpJpDldjxwNTZ9lOHQepAPVrIcHeTxA94UjyusfYgijWuEEnNag4vsNriZJLY5evRW90KqMospBAZ0YONomQco2RA2sqO7bIym8F41wM3kABQZq3W9LmLwZwPoU9rbGn-OZF0pk5glyY_em_K4q4D5C_YT0Jz8WSbD2gqOwLEHsj-pB0563LV4co8ivJPoEsvCeHlFxTCfx_gMyHcsWybNuxa1IPZrEFmlJFImCi6UMneLBrEYPnR3jXlppLQouyp9C_CZg9jDBuzE2D4XohE83ns2EbxFvzGMIUsVygIskAYsUAlQufLgYzUfBTwgjhYijhYejhYejXYftHiJylnpD4YV45s2DOpkIb4oH0pBlq9ngeeObgCmQqtqQSZ0HoYSzJvV51kpbBLMX45PasN61Wcb3S7kmJx4rubPJgStTyNyvlxx-cwvleN26iyt9mqTfrCkvtoLMFdt1yTlhWTj2JK42uiY5UV-Q8ZlVvZ2Ped3kUuJu4TZi6HZqAalrEmsonyjBMagYCnUu2SIF_vFmMWXPaBsIRgUs9o2Uf9v-_Nlt7d3NNW0mGCg7O-bz2_fRF89RyBeWmexQ3S_yVW3]--></g></svg>