<svg xmlns="http://www.w3.org/2000/svg" xmlns:xlink="http://www.w3.org/1999/xlink" contentStyleType="text/css" data-diagram-type="DESCRIPTION" height="796px" preserveAspectRatio="none" style="width:1271px;height:796px;background:#FFFFFF;" version="1.1" viewBox="0 0 1271 796" width="1271px" zoomAndPan="magnify"><title>High Availability Architecture (PostgreSQL/MySQL)</title><defs/><g><g class="title" data-source-line="5"><text fill="#000000" font-family="Verdana" font-size="22" font-weight="bold" lengthAdjust="spacing" textLength="632.1348" x="315.2544" y="35.4209">High Availability Architecture (PostgreSQL/MySQL)</text></g><!--cluster lb--><g class="cluster" data-qualified-name="lb" data-source-line="9" id="ent0003"><path d="M352.8903,206.0062 C355.4772,200.8249 358.7112,199.9869 362.5153,204.8386 C366.3616,198.6431 371.6308,199.1109 375.7071,204.5785 C378.6508,199.4453 382.852,198.4222 386.8735,203.3866 C390.3322,198.0372 393.8231,196.8481 398.2346,202.393 C400.6957,196.8567 405.3179,195.812 409.0407,201.1378 C410.5291,194.6945 415.7077,194.1474 419.7827,198.5838 C424.5956,193.916 428.2213,194.2087 430.7423,200.8123 C434.0763,196.5181 439.0405,195.918 441.7042,201.5524 C445.8392,195.3185 451.7794,196.9138 454.1745,203.2751 C458.8965,198.578 462.3516,198.9147 465.6274,204.835 C469.176,200.7108 473.7011,200.06 476.3392,205.8217 C484.7553,198.0994 492.7111,201.7874 494,212.6094 C494.514,212.1368 494.899,212.3409 495.0737,212.947 C502.6066,215.5497 503.4942,222.0961 497.1135,226.7542 C504.4439,228.9202 505.6202,232.856 500.2366,238.4245 C506.4809,241.3256 507.1277,246.0369 501.5908,250.2833 C507.1489,254.2964 507.3825,260.2291 500.8356,263.5533 C504.782,268.6913 503.6555,273.4166 497.4693,275.7604 C503.9044,286.0068 498.1308,293.6663 487,293.6094 C487.9603,294.0685 487.9363,294.9319 487.0194,295.4112 C483.5771,299.5669 479.9989,299.4776 477.0302,294.8712 C474.0876,300.447 468.2801,301.0862 464.5783,295.7366 C462.9919,300.2872 458.7149,301.811 455.0477,298.1522 C451.1066,304.1585 446.984,304.3861 442.8047,298.3954 C439.1812,303.3298 433.8363,304.7591 430.4282,298.1642 C427.7842,303.4792 423.6473,302.59 420.5293,298.6724 C416.9845,303.2242 411.7751,303.514 408.948,297.8581 C406.1282,303.1253 401.5386,302.6984 398.2214,298.417 C394.8262,304.0506 389.6393,303.9107 386.4189,298.2346 C381.665,303.505 377.7018,302.511 375.2828,296.0233 C371.716,301.0902 367.3012,300.7949 363.9047,295.8302 C353.449,303.2136 345.4601,298.6445 344,286.6094 C344.1253,286.5179 344.2281,286.5681 344.2427,286.7199 C339.3075,282.5246 338.3689,278.3768 344.8389,274.7495 C338.0512,272.0741 336.0114,268.1014 341.522,262.1806 C335.1998,259.2073 334.9494,253.7211 341.2287,250.4331 C334.6093,246.3638 335.2006,240.0835 342.5055,237.3758 C337.8377,233.9233 337.6119,229.6279 343.2249,226.88 C336.6614,216.8156 338.4567,208.6896 351,205.6094 C351.8361,204.781 352.4375,205.0087 352.8903,206.0062" fill="#FFFFFF" style="stroke:#000000;stroke-width:1;"/><text fill="#000000" font-family="Verdana" font-size="14" font-weight="bold" lengthAdjust="spacing" textLength="111.9111" x="363.0444" y="223.6045">Load Balancer</text></g><!--cluster cluster--><g class="cluster" data-qualified-name="cluster" data-source-line="13" id="ent0005"><rect fill="#FFFFFF" height="170" rx="2.5" ry="2.5" style="stroke:#000000;stroke-width:1;" width="957" x="12" y="342.6094"/><text fill="#000000" font-family="Verdana" font-size="14" font-weight="bold" lengthAdjust="spacing" textLength="194.2432" x="393.3784" y="357.6045">Schema Registry Cluster</text></g><!--cluster sr1--><g class="cluster" data-qualified-name="cluster.sr1" data-source-line="14" id="ent0006"><rect fill="#FFFFFF" height="87" rx="2.5" ry="2.5" style="stroke:#000000;stroke-width:1;" width="279" x="52" y="393.6094"/><text fill="#000000" font-family="Verdana" font-size="14" font-weight="bold" lengthAdjust="spacing" textLength="82.0244" x="150.4878" y="408.6045">Instance 1</text></g><!--cluster sr2--><g class="cluster" data-qualified-name="cluster.sr2" data-source-line="18" id="ent0009"><rect fill="#FFFFFF" height="87" rx="2.5" ry="2.5" style="stroke:#000000;stroke-width:1;" width="279" x="355" y="393.6094"/><text fill="#000000" font-family="Verdana" font-size="14" font-weight="bold" lengthAdjust="spacing" textLength="82.0244" x="453.4878" y="408.6045">Instance 2</text></g><!--cluster sr3--><g class="cluster" data-qualified-name="cluster.sr3" data-source-line="22" id="ent0012"><rect fill="#FFFFFF" height="87" rx="2.5" ry="2.5" style="stroke:#000000;stroke-width:1;" width="279" x="658" y="393.6094"/><text fill="#000000" font-family="Verdana" font-size="14" font-weight="bold" lengthAdjust="spacing" textLength="84" x="755.5" y="408.6045">Instance N</text></g><!--cluster db--><g class="cluster" data-qualified-name="db" data-source-line="28" id="ent0015"><path d="M380,587.6094 C380,577.6094 567,577.6094 567,577.6094 C567,577.6094 754,577.6094 754,587.6094 L754,769.6094 C754,779.6094 567,779.6094 567,779.6094 C567,779.6094 380,779.6094 380,769.6094 L380,587.6094" fill="#FFFFFF" style="stroke:#000000;stroke-width:1;"/><path d="M380,587.6094 C380,597.6094 567,597.6094 567,597.6094 C567,597.6094 754,597.6094 754,587.6094" fill="none" style="stroke:#000000;stroke-width:1;"/><text fill="#000000" font-family="Verdana" font-size="14" font-weight="bold" lengthAdjust="spacing" textLength="135.8438" x="499.0781" y="612.6045">Database Cluster</text></g><!--cluster primary--><g class="cluster" data-qualified-name="db.primary" data-source-line="29" id="ent0016"><rect fill="#FFFFFF" height="104" rx="2.5" ry="2.5" style="stroke:#000000;stroke-width:1;" width="134" x="420" y="643.6094"/><text fill="#000000" font-family="Verdana" font-size="14" font-weight="bold" lengthAdjust="spacing" textLength="62.0293" x="455.9854" y="658.6045">Primary</text></g><!--cluster replica--><g class="cluster" data-qualified-name="db.replica" data-source-line="32" id="ent0018"><rect fill="#FFFFFF" height="87" rx="2.5" ry="2.5" style="stroke:#000000;stroke-width:1;" width="144" x="578" y="652.1094"/><text fill="#000000" font-family="Verdana" font-size="14" font-weight="bold" lengthAdjust="spacing" textLength="78.7705" x="610.6147" y="667.1045">Replica(s)</text></g><!--cluster authdb--><g class="cluster" data-qualified-name="authdb" data-source-line="37" id="ent0020"><rect fill="#FFFFFF" height="103" rx="2.5" ry="2.5" style="stroke:#000000;stroke-width:1;" width="166" x="104" y="636.1094"/><text fill="#000000" font-family="Verdana" font-size="14" font-weight="bold" lengthAdjust="spacing" textLength="104.5967" x="134.7017" y="651.1045">Auth Storage</text><text fill="#000000" font-family="Verdana" font-size="14" font-weight="bold" lengthAdjust="spacing" textLength="80.042" x="146.979" y="667.4014">(Optional)</text></g><!--entity loadbalancer--><g class="entity" data-qualified-name="lb.loadbalancer" data-source-line="10" id="ent0004"><rect fill="#FFFFFF" height="52.5938" rx="2.5" ry="2.5" style="stroke:#000000;stroke-width:1;" width="133.4629" x="352.5" y="232.6094"/><text fill="#000000" font-family="Verdana" font-size="14" lengthAdjust="spacing" textLength="113.4629" x="362.5" y="255.6045">HAProxy / Nginx</text><text fill="#000000" font-family="Verdana" font-size="14" lengthAdjust="spacing" textLength="80.6162" x="362.5" y="271.9014">or Cloud LB</text></g><!--entity api1--><g class="entity" data-qualified-name="cluster.sr1.api1" data-source-line="15" id="ent0007"><rect fill="#FFFFFF" height="36.2969" rx="2.5" ry="2.5" style="stroke:#000000;stroke-width:1;" width="95.5918" x="68" y="428.6094"/><text fill="#000000" font-family="Verdana" font-size="14" lengthAdjust="spacing" textLength="75.5918" x="78" y="451.6045">API + Auth</text></g><!--entity core1--><g class="entity" data-qualified-name="cluster.sr1.core1" data-source-line="16" id="ent0008"><rect fill="#FFFFFF" height="36.2969" rx="2.5" ry="2.5" style="stroke:#000000;stroke-width:1;" width="115.1016" x="199.5" y="428.6094"/><text fill="#000000" font-family="Verdana" font-size="14" lengthAdjust="spacing" textLength="95.1016" x="209.5" y="451.6045">Registry Core</text></g><!--entity api2--><g class="entity" data-qualified-name="cluster.sr2.api2" data-source-line="19" id="ent0010"><rect fill="#FFFFFF" height="36.2969" rx="2.5" ry="2.5" style="stroke:#000000;stroke-width:1;" width="95.5918" x="371" y="428.6094"/><text fill="#000000" font-family="Verdana" font-size="14" lengthAdjust="spacing" textLength="75.5918" x="381" y="451.6045">API + Auth</text></g><!--entity core2--><g class="entity" data-qualified-name="cluster.sr2.core2" data-source-line="20" id="ent0011"><rect fill="#FFFFFF" height="36.2969" rx="2.5" ry="2.5" style="stroke:#000000;stroke-width:1;" width="115.1016" x="502.5" y="428.6094"/><text fill="#000000" font-family="Verdana" font-size="14" lengthAdjust="spacing" textLength="95.1016" x="512.5" y="451.6045">Registry Core</text></g><!--entity api3--><g class="entity" data-qualified-name="cluster.sr3.api3" data-source-line="23" id="ent0013"><rect fill="#FFFFFF" height="36.2969" rx="2.5" ry="2.5" style="stroke:#000000;stroke-width:1;" width="95.5918" x="674" y="428.6094"/><text fill="#000000" font-family="Verdana" font-size="14" lengthAdjust="spacing" textLength="75.5918" x="684" y="451.6045">API + Auth</text></g><!--entity core3--><g class="entity" data-qualified-name="cluster.sr3.core3" data-source-line="24" id="ent0014"><rect fill="#FFFFFF" height="36.2969" rx="2.5" ry="2.5" style="stroke:#000000;stroke-width:1;" width="115.1016" x="805.5" y="428.6094"/><text fill="#000000" font-family="Verdana" font-size="14" lengthAdjust="spacing" textLength="95.1016" x="815.5" y="451.6045">Registry Core</text></g><!--entity db1--><g class="entity" data-qualified-name="db.primary.db1" data-source-line="30" id="ent0017"><rect fill="#FFFFFF" height="52.5938" rx="2.5" ry="2.5" style="stroke:#000000;stroke-width:1;" width="100.7529" x="436.5" y="678.6094"/><text fill="#000000" font-family="Verdana" font-size="14" lengthAdjust="spacing" textLength="80.7529" x="446.5" y="701.6045">PostgreSQL</text><text fill="#000000" font-family="Verdana" font-size="14" lengthAdjust="spacing" textLength="66.8418" x="446.5" y="717.9014">or MySQL</text></g><!--entity db2--><g class="entity" data-qualified-name="db.replica.db2" data-source-line="33" id="ent0019"><rect fill="#FFFFFF" height="36.2969" rx="2.5" ry="2.5" style="stroke:#000000;stroke-width:1;" width="111.54" x="594" y="687.1094"/><text fill="#000000" font-family="Verdana" font-size="14" lengthAdjust="spacing" textLength="91.54" x="604" y="710.1045">Read Replica</text></g><!--entity vault--><g class="entity" data-qualified-name="authdb.vault" data-source-line="38" id="ent0021"><rect fill="#FFFFFF" height="36.2969" rx="2.5" ry="2.5" style="stroke:#000000;stroke-width:1;" width="133.0049" x="120.5" y="687.1094"/><text fill="#000000" font-family="Verdana" font-size="14" lengthAdjust="spacing" textLength="113.0049" x="130.5" y="710.1045">HashiCorp Vault</text></g><!--entity clients--><g class="entity" data-qualified-name="clients" data-source-line="7" id="ent0002"><ellipse cx="418.8545" cy="65.6094" fill="#FFFFFF" rx="8" ry="8" style="stroke:#000000;stroke-width:1;"/><path d="M418.8545,73.6094 L418.8545,100.6094 M405.8545,81.6094 L431.8545,81.6094 M418.8545,100.6094 L405.8545,115.6094 M418.8545,100.6094 L431.8545,115.6094" fill="none" style="stroke:#000000;stroke-width:1;"/><text fill="#000000" font-family="Verdana" font-size="14" lengthAdjust="spacing" textLength="113.709" x="362" y="130.6045">Kafka Producers</text><text fill="#000000" font-family="Verdana" font-size="14" lengthAdjust="spacing" textLength="94.0488" x="362" y="146.9014">&amp; Consumers</text></g><g class="entity" data-qualified-name="GMN35" data-source-line="59" id="ent0036"><path d="M993,403.6094 L993,489.2734 L1264.6436,489.2734 L1264.6436,413.6094 L1254.6436,403.6094 L993,403.6094" fill="#FFFFFF" style="stroke:#000000;stroke-width:1;"/><path d="M1254.6436,403.6094 L1254.6436,413.6094 L1264.6436,413.6094 L1254.6436,403.6094" fill="#FFFFFF" style="stroke:#000000;stroke-width:1;"/><text fill="#000000" font-family="Verdana" font-size="13" font-weight="bold" lengthAdjust="spacing" textLength="123.0176" x="999" y="420.6763">Stateless Design</text><text fill="#000000" font-family="Verdana" font-size="13" lengthAdjust="spacing" textLength="250.6436" x="999" y="435.8091">- Any instance can handle any request</text><text fill="#000000" font-family="Verdana" font-size="13" lengthAdjust="spacing" textLength="186.7671" x="999" y="450.9419">- No leader election required</text><text fill="#000000" font-family="Verdana" font-size="13" lengthAdjust="spacing" textLength="203.1758" x="999" y="466.0747">- Horizontal scaling via replicas</text><text fill="#000000" font-family="Verdana" font-size="13" lengthAdjust="spacing" textLength="237.7959" x="999" y="481.2075">- API key cache with periodic refresh</text></g><g class="entity" data-qualified-name="GMN38" data-source-line="67" id="ent0039"><path d="M778,669.6094 L778,740.1406 L1031.7114,740.1406 L1031.7114,679.6094 L1021.7114,669.6094 L778,669.6094" fill="#FFFFFF" style="stroke:#000000;stroke-width:1;"/><path d="M1021.7114,669.6094 L1021.7114,679.6094 L1031.7114,679.6094 L1021.7114,669.6094" fill="#FFFFFF" style="stroke:#000000;stroke-width:1;"/><text fill="#000000" font-family="Verdana" font-size="13" font-weight="bold" lengthAdjust="spacing" textLength="94.6499" x="784" y="686.6763">Database HA</text><text fill="#000000" font-family="Verdana" font-size="13" lengthAdjust="spacing" textLength="232.7114" x="784" y="701.8091">- PostgreSQL: Streaming replication</text><text fill="#000000" font-family="Verdana" font-size="13" lengthAdjust="spacing" textLength="174.8018" x="784" y="716.9419">- MySQL: Group replication</text><text fill="#000000" font-family="Verdana" font-size="13" lengthAdjust="spacing" textLength="128.3813" x="784" y="732.0747">- Automatic failover</text></g><!--link clients to loadbalancer--><g class="link" data-entity-1="ent0002" data-entity-2="ent0004" data-link-type="dependency" data-source-line="41" id="lnk22"><path d="M419,150.6694 C419,177.3294 419,203.9194 419,226.1694" fill="none" id="clients-to-loadbalancer" style="stroke:#000000;stroke-width:1;"/><polygon fill="#000000" points="419,232.1694,423,223.1694,419,227.1694,415,223.1694,419,232.1694" style="stroke:#000000;stroke-width:1;"/></g><!--link loadbalancer to api1--><g class="link" data-entity-1="ent0004" data-entity-2="ent0007" data-link-type="dependency" data-source-line="42" id="lnk23"><path d="M352.44,264.9594 C301.15,271.7294 230.94,287.9094 182,326.6094 C148.27,353.2794 130.9502,396.4489 122.7102,422.4889" fill="none" id="loadbalancer-to-api1" style="stroke:#000000;stroke-width:1;"/><polygon fill="#000000" points="120.9,428.2094,127.4289,420.8355,122.4085,423.4423,119.8016,418.422,120.9,428.2094" style="stroke:#000000;stroke-width:1;"/></g><!--link loadbalancer to api2--><g class="link" data-entity-1="ent0004" data-entity-2="ent0010" data-link-type="dependency" data-source-line="43" id="lnk24"><path d="M419,285.8994 C419,324.4294 419,389.9594 419,422.5894" fill="none" id="loadbalancer-to-api2" style="stroke:#000000;stroke-width:1;"/><polygon fill="#000000" points="419,428.5894,423,419.5894,419,423.5894,415,419.5894,419,428.5894" style="stroke:#000000;stroke-width:1;"/></g><!--link loadbalancer to api3--><g class="link" data-entity-1="ent0004" data-entity-2="ent0013" data-link-type="dependency" data-source-line="44" id="lnk25"><path d="M485.9,269.5894 C530.98,278.5294 590.02,295.4094 634,326.6094 C672.14,353.6694 697.8031,397.0549 711.0231,422.9649" fill="none" id="loadbalancer-to-api3" style="stroke:#000000;stroke-width:1;"/><polygon fill="#000000" points="713.75,428.3094,713.2226,418.4746,711.4776,423.8556,706.0966,422.1105,713.75,428.3094" style="stroke:#000000;stroke-width:1;"/></g><!--link core1 to db1--><g class="link" data-entity-1="ent0008" data-entity-2="ent0017" data-link-type="dependency" data-source-line="46" id="lnk26"><path d="M263.58,464.7894 C273.98,489.2994 296.73,533.5494 332,553.6094 C351.57,564.7394 414.99,548.0994 433,561.6094 C469.92,589.3194 480.932,639.4967 484.622,672.4367" fill="none" id="core1-to-db1" style="stroke:#000000;stroke-width:1;"/><polygon fill="#000000" points="485.29,678.3994,488.2632,669.01,484.7334,673.4305,480.3129,669.9006,485.29,678.3994" style="stroke:#000000;stroke-width:1;"/><text fill="#000000" font-family="Verdana" font-size="13" lengthAdjust="spacing" textLength="34.9058" x="333" y="549.6763">Write</text></g><!--link core2 to db1--><g class="link" data-entity-1="ent0011" data-entity-2="ent0017" data-link-type="dependency" data-source-line="47" id="lnk27"><path d="M549.78,464.7794 C537.23,484.0994 513.99,514.6094 485,528.6094 C463.93,538.7894 395.91,519.4494 380,536.6094 C374.86,542.1494 375.07,547.8794 380,553.6094 C395.54,571.6694 414.46,546.6494 433,561.6094 C468.82,590.5294 480.1474,640.0155 484.2074,672.5655" fill="none" id="core2-to-db1" style="stroke:#000000;stroke-width:1;"/><polygon fill="#000000" points="484.95,678.5194,487.8053,669.0935,484.3311,673.5578,479.8668,670.0837,484.95,678.5194" style="stroke:#000000;stroke-width:1;"/><text fill="#000000" font-family="Verdana" font-size="13" lengthAdjust="spacing" textLength="34.9058" x="381" y="549.6763">Write</text></g><!--link core3 to db1--><g class="link" data-entity-1="ent0014" data-entity-2="ent0017" data-link-type="dependency" data-source-line="48" id="lnk28"><path d="M858.4,464.8894 C850.83,489.5294 833.14,533.9494 800,553.6094 C778.77,566.1994 599.43,549.3594 578,561.6094 C533.15,587.2494 508.9776,639.3388 496.9876,672.9188" fill="none" id="core3-to-db1" style="stroke:#000000;stroke-width:1;"/><polygon fill="#000000" points="494.97,678.5694,501.7635,671.4385,496.6513,673.8605,494.2293,668.7484,494.97,678.5694" style="stroke:#000000;stroke-width:1;"/><text fill="#000000" font-family="Verdana" font-size="13" lengthAdjust="spacing" textLength="34.9058" x="821" y="549.6763">Write</text></g><!--link core1 to db2--><g class="link" data-entity-1="ent0008" data-entity-2="ent0019" data-link-type="dependency" data-source-line="50" id="lnk29"><path d="M271.2,464.6794 C288.62,484.2094 320.18,515.2294 355,528.6094 C393.41,543.3694 504.22,516.2894 540,536.6094 C599.6,570.4494 630.6819,645.7176 642.7319,681.2276" fill="none" id="core1-to-db2" style="stroke:#000000;stroke-width:1;stroke-dasharray:7,7;"/><polygon fill="#000000" points="644.66,686.9094,645.5558,677.1013,643.0533,682.1746,637.9801,679.6721,644.66,686.9094" style="stroke:#000000;stroke-width:1;"/><text fill="#000000" font-family="Verdana" font-size="13" lengthAdjust="spacing" textLength="100.2104" x="562" y="549.6763">Read (optional)</text></g><!--link core2 to db2--><g class="link" data-entity-1="ent0011" data-entity-2="ent0019" data-link-type="dependency" data-source-line="51" id="lnk30"><path d="M576.61,464.6694 C595.03,482.7494 626.34,511.0594 658,528.6094 C667.83,534.0594 675.43,527.4894 682,536.6094 C715.41,582.9594 683.3299,649.4742 663.9999,681.9342" fill="none" id="core2-to-db2" style="stroke:#000000;stroke-width:1;stroke-dasharray:7,7;"/><polygon fill="#000000" points="660.93,687.0894,668.9716,681.4032,663.4883,682.7934,662.0981,677.31,660.93,687.0894" style="stroke:#000000;stroke-width:1;"/><text fill="#000000" font-family="Verdana" font-size="13" lengthAdjust="spacing" textLength="100.2104" x="691" y="549.6763">Read (optional)</text></g><!--link core3 to db2--><g class="link" data-entity-1="ent0014" data-entity-2="ent0019" data-link-type="dependency" data-source-line="52" id="lnk31"><path d="M878.48,464.8894 C897.23,487.9194 923.55,528.6694 900,553.6094 C889.38,564.8594 774.7,554.4194 761,561.6094 C707.68,589.5894 674.4272,650.3176 659.8772,681.6476" fill="none" id="core3-to-db2" style="stroke:#000000;stroke-width:1;stroke-dasharray:7,7;"/><polygon fill="#000000" points="657.35,687.0894,664.7687,680.6115,659.456,682.5545,657.513,677.2419,657.35,687.0894" style="stroke:#000000;stroke-width:1;"/><text fill="#000000" font-family="Verdana" font-size="13" lengthAdjust="spacing" textLength="100.2104" x="909" y="549.6763">Read (optional)</text></g><!--link api1 to vault--><g class="link" data-entity-1="ent0007" data-entity-2="ent0021" data-link-type="dependency" data-source-line="54" id="lnk32"><path d="M102.22,464.7494 C89.46,481.8094 71.39,509.3194 64,536.6094 C62.03,543.8994 61.46,546.4894 64,553.6094 C84.29,610.4994 131.8006,657.4859 161.2806,682.9659" fill="none" id="api1-to-vault" style="stroke:#000000;stroke-width:1;stroke-dasharray:7,7;"/><polygon fill="#000000" points="165.82,686.8894,161.6265,677.9779,162.0372,683.6198,156.3952,684.0304,165.82,686.8894" style="stroke:#000000;stroke-width:1;"/><text fill="#000000" font-family="Verdana" font-size="13" lengthAdjust="spacing" textLength="78.1396" x="65" y="549.6763">Auth lookup</text></g><!--link api2 to vault--><g class="link" data-entity-1="ent0010" data-entity-2="ent0021" data-link-type="dependency" data-source-line="55" id="lnk33"><path d="M406.3,464.8294 C390.91,484.1994 363.02,514.7594 331,528.6094 C308.51,538.3394 239.4,520.4194 221,536.6094 C177.45,574.9294 179.9139,646.4476 183.8239,680.9276" fill="none" id="api2-to-vault" style="stroke:#000000;stroke-width:1;stroke-dasharray:7,7;"/><polygon fill="#000000" points="184.5,686.8894,187.4604,677.496,183.9366,681.9212,179.5114,678.3974,184.5,686.8894" style="stroke:#000000;stroke-width:1;"/><text fill="#000000" font-family="Verdana" font-size="13" lengthAdjust="spacing" textLength="78.1396" x="222" y="549.6763">Auth lookup</text></g><!--link api3 to vault--><g class="link" data-entity-1="ent0013" data-entity-2="ent0021" data-link-type="dependency" data-source-line="56" id="lnk34"><path d="M709.64,464.6494 C694.38,484.1494 666.4,515.1394 634,528.6094 C596.62,544.1494 491.06,525.9594 452,536.6094 C436.46,540.8494 435.25,548.4394 420,553.6094 C399.52,560.5494 391.83,552.9694 372,561.6094 C301.38,592.3694 237.8849,651.6793 207.6749,682.4293" fill="none" id="api3-to-vault" style="stroke:#000000;stroke-width:1;stroke-dasharray:7,7;"/><polygon fill="#000000" points="203.47,686.7094,212.6307,683.0926,206.9741,683.1427,206.924,677.486,203.47,686.7094" style="stroke:#000000;stroke-width:1;"/><text fill="#000000" font-family="Verdana" font-size="13" lengthAdjust="spacing" textLength="78.1396" x="453" y="549.6763">Auth lookup</text></g><!--link cluster to GMN35--><g class="link" data-entity-1="ent0005" data-entity-2="ent0036" data-link-type="association" data-source-line="59" id="lnk37"><path d="M37.6686,342.212 C45.0375,330.3869 55.2875,321.3794 69.5,318.1094 C115.52,307.5194 873.48,307.5194 919.5,318.1094 C980.21,332.0694 1039.81,371.9094 1079.83,403.5594" fill="none" id="cluster-GMN35" style="stroke:#000000;stroke-width:1;stroke-dasharray:7,7;"/></g><!--link db to GMN38--><g class="link" data-entity-1="ent0015" data-entity-2="ent0039" data-link-type="association" data-source-line="67" id="lnk40"><path d="M402.8499,577.2873 C403.3709,576.3347 403.9067,575.3939 404.4575,574.4656 C405.5593,572.609 406.7213,570.8025 407.9468,569.0528 C410.3977,565.5534 413.1021,562.2809 416.0841,559.2881 C422.0481,553.3025 429.1225,548.4356 437.5,545.1094 C492.64,523.2094 648.5,525.4994 704.5,545.1094 C774.69,569.6794 838.63,630.2894 874.6,669.4494" fill="none" id="db-GMN38" style="stroke:#000000;stroke-width:1;stroke-dasharray:7,7;"/></g><!--SRC=[ZLLDRzim3BtxLt0v36c6jgXzws50sW9BiQxB6c2xz4BBYYr4bZn9JkiD_U-bPELZhTibXq0YdzuZALB-u2fUSsWa2fNObL0D6gmXHxOgZMvLSQcbDl1G2SVt_4pNZLPSkONh90V3cKDLIfuaJZWop4HPmNIDGc8kf70TJ0tp7CorXiDuhgqh3L_yk3dzrj7_KP8WSoGq-ehB5SBSwA9btDXxzH4kjR9jJPiHe0Kc1UdQ965IjmMCRZGMS84I5U43GkRmDm7wRQE4qMnAb8yTdC9jATJZlIAjoq1mSz4V8feyiYHFIR9D2KOBHZL2kEEbiCvqTAwrBcgnVXq5zmvTA-iy6Pm5d3Ld4VCYiEdy6Zx1j7LLm64ZpePWEt5jUAzCYnxwzAPs6hNJGxNJmxNJ_sZVHktiKEtiSEqiQjCz5UWmHqlALvlL_lqK-UkhcHjHe-c2l-dNmp7kkZJqI-ZKoFf6vUzu8mN3iJqAEDDlXzdlE3LkF11PqrrUUwI-IB2WwS2ItwlnzyO9hL3s4aZEOgZXqLQ2YjR0Jsob2zYrNtdoE4DmVFpvtyRVtmHlwCSXQpfepOZRzsNOKvNW77uP_tI4ZXcqPg-iaUBan9jJCeTAZVKcxqZslZzxnv_uh88_L8GGeSHIwrNRU6VwdZDxqvaexUWnfBVFWLvktWQwcSbauT1noQs5Asv5gIOJCX_3L7KWDXF3K465gg0xHx8R_hlbrWNShGP9IL2XYOJvF89R65u4_qmRyKShXn8iGobK2Mk1c_wplHPDt8ft94Fl6Jm8YhlXHkX2C08k3RTLmbK1FecNgHHvo68xOhDfJ60t8kVKeePZxRMZheypeCBadCCN-g8qhvnKGLtJbi6IlXTwJHNRXl4C]--></g></svg>