<svg xmlns="http://www.w3.org/2000/svg" xmlns:xlink="http://www.w3.org/1999/xlink" contentStyleType="text/css" data-diagram-type="SEQUENCE" height="1208px" preserveAspectRatio="none" style="width:1475px;height:1208px;background:#FFFFFF;" version="1.1" viewBox="0 0 1475 1208" width="1475px" zoomAndPan="magnify"><title>Schema Registration Flow</title><defs/><g><text fill="#000000" font-family="Verdana" font-size="22" font-weight="bold" lengthAdjust="spacing" textLength="323.8555" x="579.4829" y="35.4209">Schema Registration Flow</text><rect fill="#FFFFFF" height="440.4688" style="stroke:#000000;stroke-width:1;" width="1201.6777" x="267.1436" y="547.6328"/><rect fill="#FFFFFF" height="394.2031" style="stroke:none;stroke-width:1;" width="1201.6777" x="267.1436" y="593.8984"/><rect fill="#FFFFFF" height="148.4688" style="stroke:#000000;stroke-width:1;" width="1181.6777" x="277.1436" y="832.6328"/><rect fill="#FFFFFF" height="43.9375" style="stroke:none;stroke-width:1;" width="1181.6777" x="277.1436" y="937.1641"/><g class="participant-lifeline" data-entity-uid="part1" data-qualified-name="client" id="part1-lifeline"><g><title>Kafka Producer</title><rect fill="#000000" fill-opacity="0.00000" height="1015.9922" width="8" x="76.2075" y="113.9063"/><line style="stroke:#000000;stroke-width:1;stroke-dasharray:5,5;" x1="80" x2="80" y1="113.9063" y2="1129.8984"/></g></g><g class="participant-lifeline" data-entity-uid="part2" data-qualified-name="api" id="part2-lifeline"><g><title>Schema Registry API</title><rect fill="#000000" fill-opacity="0.00000" height="1015.9922" width="8" x="372.7822" y="113.9063"/><line style="stroke:#000000;stroke-width:1;stroke-dasharray:5,5;" x1="376.1436" x2="376.1436" y1="113.9063" y2="1129.8984"/></g></g><g class="participant-lifeline" data-entity-uid="part3" data-qualified-name="auth" id="part3-lifeline"><g><title>Auth Module</title><rect fill="#000000" fill-opacity="0.00000" height="1015.9922" width="8" x="551.1104" y="113.9063"/><line style="stroke:#000000;stroke-width:1;stroke-dasharray:5,5;" x1="555.0254" x2="555.0254" y1="113.9063" y2="1129.8984"/></g></g><g class="participant-lifeline" data-entity-uid="part4" data-qualified-name="parser" id="part4-lifeline"><g><title>Schema Parser</title><rect fill="#000000" fill-opacity="0.00000" height="1015.9922" width="8" x="691.7842" y="113.9063"/><line style="stroke:#000000;stroke-width:1;stroke-dasharray:5,5;" x1="695.1953" x2="695.1953" y1="113.9063" y2="1129.8984"/></g></g><g class="participant-lifeline" data-entity-uid="part5" data-qualified-name="compat" id="part5-lifeline"><g><title>Compatibility Checker</title><rect fill="#000000" fill-opacity="0.00000" height="1015.9922" width="8" x="909.8994" y="113.9063"/><line style="stroke:#000000;stroke-width:1;stroke-dasharray:5,5;" x1="913.3799" x2="913.3799" y1="113.9063" y2="1129.8984"/></g></g><g class="participant-lifeline" data-entity-uid="part6" data-qualified-name="core" id="part6-lifeline"><g><title>Registry Core</title><rect fill="#000000" fill-opacity="0.00000" height="1015.9922" width="8" x="1133.3848" y="113.9063"/><line style="stroke:#000000;stroke-width:1;stroke-dasharray:5,5;" x1="1136.834" x2="1136.834" y1="113.9063" y2="1129.8984"/></g></g><g class="participant-lifeline" data-entity-uid="part7" data-qualified-name="db" id="part7-lifeline"><g><title>Storage</title><rect fill="#000000" fill-opacity="0.00000" height="1015.9922" width="8" x="1414.4331" y="113.9063"/><line style="stroke:#000000;stroke-width:1;stroke-dasharray:5,5;" x1="1418.0449" x2="1418.0449" y1="113.9063" y2="1129.8984"/></g></g><g class="participant participant-head" data-entity-uid="part1" data-qualified-name="client" id="part1-head"><rect fill="#FFFFFF" height="30.2969" rx="2.5" ry="2.5" style="stroke:#000000;stroke-width:1;" width="120.415" x="20" y="82.6094"/><text fill="#000000" font-family="Verdana" font-size="14" lengthAdjust="spacing" textLength="106.415" x="27" y="102.6045">Kafka Producer</text></g><g class="participant participant-tail" data-entity-uid="part1" data-qualified-name="client" id="part1-tail"><rect fill="#FFFFFF" height="30.2969" rx="2.5" ry="2.5" style="stroke:#000000;stroke-width:1;" width="120.415" x="20" y="1128.8984"/><text fill="#000000" font-family="Verdana" font-size="14" lengthAdjust="spacing" textLength="106.415" x="27" y="1148.8936">Kafka Producer</text></g><g class="participant participant-head" data-entity-uid="part2" data-qualified-name="api" id="part2-head"><rect fill="#FFFFFF" height="30.2969" rx="2.5" ry="2.5" style="stroke:#000000;stroke-width:1;" width="159.2773" x="297.1436" y="82.6094"/><text fill="#000000" font-family="Verdana" font-size="14" lengthAdjust="spacing" textLength="145.2773" x="304.1436" y="102.6045">Schema Registry API</text></g><g class="participant participant-tail" data-entity-uid="part2" data-qualified-name="api" id="part2-tail"><rect fill="#FFFFFF" height="30.2969" rx="2.5" ry="2.5" style="stroke:#000000;stroke-width:1;" width="159.2773" x="297.1436" y="1128.8984"/><text fill="#000000" font-family="Verdana" font-size="14" lengthAdjust="spacing" textLength="145.2773" x="304.1436" y="1148.8936">Schema Registry API</text></g><g class="participant participant-head" data-entity-uid="part3" data-qualified-name="auth" id="part3-head"><rect fill="#FFFFFF" height="30.2969" rx="2.5" ry="2.5" style="stroke:#000000;stroke-width:1;" width="102.1699" x="504.0254" y="82.6094"/><text fill="#000000" font-family="Verdana" font-size="14" lengthAdjust="spacing" textLength="88.1699" x="511.0254" y="102.6045">Auth Module</text></g><g class="participant participant-tail" data-entity-uid="part3" data-qualified-name="auth" id="part3-tail"><rect fill="#FFFFFF" height="30.2969" rx="2.5" ry="2.5" style="stroke:#000000;stroke-width:1;" width="102.1699" x="504.0254" y="1128.8984"/><text fill="#000000" font-family="Verdana" font-size="14" lengthAdjust="spacing" textLength="88.1699" x="511.0254" y="1148.8936">Auth Module</text></g><g class="participant participant-head" data-entity-uid="part4" data-qualified-name="parser" id="part4-head"><rect fill="#FFFFFF" height="30.2969" rx="2.5" ry="2.5" style="stroke:#000000;stroke-width:1;" width="119.1777" x="636.1953" y="82.6094"/><text fill="#000000" font-family="Verdana" font-size="14" lengthAdjust="spacing" textLength="105.1777" x="643.1953" y="102.6045">Schema Parser</text></g><g class="participant participant-tail" data-entity-uid="part4" data-qualified-name="parser" id="part4-tail"><rect fill="#FFFFFF" height="30.2969" rx="2.5" ry="2.5" style="stroke:#000000;stroke-width:1;" width="119.1777" x="636.1953" y="1128.8984"/><text fill="#000000" font-family="Verdana" font-size="14" lengthAdjust="spacing" textLength="105.1777" x="643.1953" y="1148.8936">Schema Parser</text></g><g class="participant participant-head" data-entity-uid="part5" data-qualified-name="compat" id="part5-head"><rect fill="#FFFFFF" height="30.2969" rx="2.5" ry="2.5" style="stroke:#000000;stroke-width:1;" width="169.0391" x="829.3799" y="82.6094"/><text fill="#000000" font-family="Verdana" font-size="14" lengthAdjust="spacing" textLength="155.0391" x="836.3799" y="102.6045">Compatibility Checker</text></g><g class="participant participant-tail" data-entity-uid="part5" data-qualified-name="compat" id="part5-tail"><rect fill="#FFFFFF" height="30.2969" rx="2.5" ry="2.5" style="stroke:#000000;stroke-width:1;" width="169.0391" x="829.3799" y="1128.8984"/><text fill="#000000" font-family="Verdana" font-size="14" lengthAdjust="spacing" textLength="155.0391" x="836.3799" y="1148.8936">Compatibility Checker</text></g><g class="participant participant-head" data-entity-uid="part6" data-qualified-name="core" id="part6-head"><rect fill="#FFFFFF" height="30.2969" rx="2.5" ry="2.5" style="stroke:#000000;stroke-width:1;" width="109.1016" x="1082.834" y="82.6094"/><text fill="#000000" font-family="Verdana" font-size="14" lengthAdjust="spacing" textLength="95.1016" x="1089.834" y="102.6045">Registry Core</text></g><g class="participant participant-tail" data-entity-uid="part6" data-qualified-name="core" id="part6-tail"><rect fill="#FFFFFF" height="30.2969" rx="2.5" ry="2.5" style="stroke:#000000;stroke-width:1;" width="109.1016" x="1082.834" y="1128.8984"/><text fill="#000000" font-family="Verdana" font-size="14" lengthAdjust="spacing" textLength="95.1016" x="1089.834" y="1148.8936">Registry Core</text></g><g class="participant participant-head" data-entity-uid="part7" data-qualified-name="db" id="part7-head"><text fill="#000000" font-family="Verdana" font-size="14" lengthAdjust="spacing" textLength="54.7764" x="1388.0449" y="110.6045">Storage</text><path d="M1400.4331,61.6094 C1400.4331,51.6094 1418.4331,51.6094 1418.4331,51.6094 C1418.4331,51.6094 1436.4331,51.6094 1436.4331,61.6094 L1436.4331,87.6094 C1436.4331,97.6094 1418.4331,97.6094 1418.4331,97.6094 C1418.4331,97.6094 1400.4331,97.6094 1400.4331,87.6094 L1400.4331,61.6094" fill="#FFFFFF" style="stroke:#000000;stroke-width:1;"/><path d="M1400.4331,61.6094 C1400.4331,71.6094 1418.4331,71.6094 1418.4331,71.6094 C1418.4331,71.6094 1436.4331,71.6094 1436.4331,61.6094" fill="none" style="stroke:#000000;stroke-width:1;"/></g><g class="participant participant-tail" data-entity-uid="part7" data-qualified-name="db" id="part7-tail"><text fill="#000000" font-family="Verdana" font-size="14" lengthAdjust="spacing" textLength="54.7764" x="1388.0449" y="1141.8936">Storage</text><path d="M1400.4331,1155.1953 C1400.4331,1145.1953 1418.4331,1145.1953 1418.4331,1145.1953 C1418.4331,1145.1953 1436.4331,1145.1953 1436.4331,1155.1953 L1436.4331,1181.1953 C1436.4331,1191.1953 1418.4331,1191.1953 1418.4331,1191.1953 C1418.4331,1191.1953 1400.4331,1191.1953 1400.4331,1181.1953 L1400.4331,1155.1953" fill="#FFFFFF" style="stroke:#000000;stroke-width:1;"/><path d="M1400.4331,1155.1953 C1400.4331,1165.1953 1418.4331,1165.1953 1418.4331,1165.1953 C1418.4331,1165.1953 1436.4331,1165.1953 1436.4331,1155.1953" fill="none" style="stroke:#000000;stroke-width:1;"/></g><g class="message" data-entity-1="part1" data-entity-2="part2" id="msg1"><polygon fill="#000000" points="364.7822,156.1719,374.7822,160.1719,364.7822,164.1719,368.7822,160.1719" style="stroke:#000000;stroke-width:1;"/><line style="stroke:#000000;stroke-width:1;" x1="80.2075" x2="370.7822" y1="160.1719" y2="160.1719"/><text fill="#000000" font-family="Verdana" font-size="13" lengthAdjust="spacing" textLength="223.4756" x="87.2075" y="139.9731">POST /subjects/{subject}/versions</text><text fill="#000000" font-family="Verdana" font-size="13" lengthAdjust="spacing" textLength="272.5747" x="87.2075" y="155.106">{"schema": "...", "schemaType": "AVRO"}</text></g><g class="message" data-entity-1="part2" data-entity-2="part3" id="msg2"><polygon fill="#000000" points="543.1104,185.3047,553.1104,189.3047,543.1104,193.3047,547.1104,189.3047" style="stroke:#000000;stroke-width:1;"/><line style="stroke:#000000;stroke-width:1;" x1="376.7822" x2="549.1104" y1="189.3047" y2="189.3047"/><text fill="#000000" font-family="Verdana" font-size="13" lengthAdjust="spacing" textLength="137.4585" x="383.7822" y="184.2388">Authenticate request</text></g><g class="message" data-entity-1="part3" data-entity-2="part2" id="msg3"><polygon fill="#000000" points="387.7822,214.4375,377.7822,218.4375,387.7822,222.4375,383.7822,218.4375" style="stroke:#000000;stroke-width:1;"/><line style="stroke:#000000;stroke-width:1;stroke-dasharray:2,2;" x1="381.7822" x2="554.1104" y1="218.4375" y2="218.4375"/><text fill="#000000" font-family="Verdana" font-size="13" lengthAdjust="spacing" textLength="142.4287" x="393.7822" y="213.3716">User (role: developer)</text></g><g class="message" data-entity-1="part2" data-entity-2="part2" id="msg4"><line style="stroke:#000000;stroke-width:1;" x1="376.7822" x2="418.7822" y1="247.5703" y2="247.5703"/><line style="stroke:#000000;stroke-width:1;" x1="418.7822" x2="418.7822" y1="247.5703" y2="260.5703"/><line style="stroke:#000000;stroke-width:1;" x1="377.7822" x2="418.7822" y1="260.5703" y2="260.5703"/><polygon fill="#000000" points="387.7822,256.5703,377.7822,260.5703,387.7822,264.5703,383.7822,260.5703" style="stroke:#000000;stroke-width:1;"/><text fill="#000000" font-family="Verdana" font-size="13" lengthAdjust="spacing" textLength="164.3281" x="383.7822" y="242.5044">Authorize (schema:write)</text></g><g class="message" data-entity-1="part2" data-entity-2="part4" id="msg5"><polygon fill="#000000" points="683.7842,285.7031,693.7842,289.7031,683.7842,293.7031,687.7842,289.7031" style="stroke:#000000;stroke-width:1;"/><line style="stroke:#000000;stroke-width:1;" x1="376.7822" x2="689.7842" y1="289.7031" y2="289.7031"/><text fill="#000000" font-family="Verdana" font-size="13" lengthAdjust="spacing" textLength="90.8413" x="383.7822" y="284.6372">Parse schema</text></g><g class="message" data-entity-1="part4" data-entity-2="part4" id="msg6"><line style="stroke:#000000;stroke-width:1;" x1="695.7842" x2="737.7842" y1="318.8359" y2="318.8359"/><line style="stroke:#000000;stroke-width:1;" x1="737.7842" x2="737.7842" y1="318.8359" y2="331.8359"/><line style="stroke:#000000;stroke-width:1;" x1="696.7842" x2="737.7842" y1="331.8359" y2="331.8359"/><polygon fill="#000000" points="706.7842,327.8359,696.7842,331.8359,706.7842,335.8359,702.7842,331.8359" style="stroke:#000000;stroke-width:1;"/><text fill="#000000" font-family="Verdana" font-size="13" lengthAdjust="spacing" textLength="100.9912" x="702.7842" y="313.77">Validate syntax</text></g><g class="message" data-entity-1="part4" data-entity-2="part4" id="msg7"><line style="stroke:#000000;stroke-width:1;" x1="695.7842" x2="737.7842" y1="360.9688" y2="360.9688"/><line style="stroke:#000000;stroke-width:1;" x1="737.7842" x2="737.7842" y1="360.9688" y2="373.9688"/><line style="stroke:#000000;stroke-width:1;" x1="696.7842" x2="737.7842" y1="373.9688" y2="373.9688"/><polygon fill="#000000" points="706.7842,369.9688,696.7842,373.9688,706.7842,377.9688,702.7842,373.9688" style="stroke:#000000;stroke-width:1;"/><text fill="#000000" font-family="Verdana" font-size="13" lengthAdjust="spacing" textLength="161.4019" x="702.7842" y="355.9028">Generate canonical form</text></g><g class="message" data-entity-1="part4" data-entity-2="part4" id="msg8"><line style="stroke:#000000;stroke-width:1;" x1="695.7842" x2="737.7842" y1="403.1016" y2="403.1016"/><line style="stroke:#000000;stroke-width:1;" x1="737.7842" x2="737.7842" y1="403.1016" y2="416.1016"/><line style="stroke:#000000;stroke-width:1;" x1="696.7842" x2="737.7842" y1="416.1016" y2="416.1016"/><polygon fill="#000000" points="706.7842,412.1016,696.7842,416.1016,706.7842,420.1016,702.7842,416.1016" style="stroke:#000000;stroke-width:1;"/><text fill="#000000" font-family="Verdana" font-size="13" lengthAdjust="spacing" textLength="204.1152" x="702.7842" y="398.0356">Calculate fingerprint (SHA-256)</text></g><g class="message" data-entity-1="part4" data-entity-2="part2" id="msg9"><polygon fill="#000000" points="387.7822,441.2344,377.7822,445.2344,387.7822,449.2344,383.7822,445.2344" style="stroke:#000000;stroke-width:1;"/><line style="stroke:#000000;stroke-width:1;stroke-dasharray:2,2;" x1="381.7822" x2="694.7842" y1="445.2344" y2="445.2344"/><text fill="#000000" font-family="Verdana" font-size="13" lengthAdjust="spacing" textLength="99.0933" x="393.7822" y="440.1685">Parsed schema</text></g><g class="message" data-entity-1="part2" data-entity-2="part6" id="msg10"><polygon fill="#000000" points="1125.3848,470.3672,1135.3848,474.3672,1125.3848,478.3672,1129.3848,474.3672" style="stroke:#000000;stroke-width:1;"/><line style="stroke:#000000;stroke-width:1;" x1="376.7822" x2="1131.3848" y1="474.3672" y2="474.3672"/><text fill="#000000" font-family="Verdana" font-size="13" lengthAdjust="spacing" textLength="109.0273" x="383.7822" y="469.3013">Register schema</text></g><g class="message" data-entity-1="part6" data-entity-2="part7" id="msg11"><polygon fill="#000000" points="1406.4331,499.5,1416.4331,503.5,1406.4331,507.5,1410.4331,503.5" style="stroke:#000000;stroke-width:1;"/><line style="stroke:#000000;stroke-width:1;" x1="1137.3848" x2="1412.4331" y1="503.5" y2="503.5"/><text fill="#000000" font-family="Verdana" font-size="13" lengthAdjust="spacing" textLength="257.0483" x="1144.3848" y="498.4341">Lookup existing schemas by fingerprint</text></g><g class="message" data-entity-1="part7" data-entity-2="part6" id="msg12"><polygon fill="#000000" points="1148.3848,528.6328,1138.3848,532.6328,1148.3848,536.6328,1144.3848,532.6328" style="stroke:#000000;stroke-width:1;"/><line style="stroke:#000000;stroke-width:1;stroke-dasharray:2,2;" x1="1142.3848" x2="1417.4331" y1="532.6328" y2="532.6328"/><text fill="#000000" font-family="Verdana" font-size="13" lengthAdjust="spacing" textLength="156.9077" x="1154.3848" y="527.5669">Existing schema (if any)</text></g><path d="M267.1436,547.6328 L331.5864,547.6328 L331.5864,554.7656 L321.5864,564.7656 L267.1436,564.7656 L267.1436,547.6328" fill="#FFFFFF" style="stroke:#000000;stroke-width:1;"/><rect fill="none" height="440.4688" style="stroke:#000000;stroke-width:1;" width="1201.6777" x="267.1436" y="547.6328"/><text fill="#000000" font-family="Verdana" font-size="13" font-weight="bold" lengthAdjust="spacing" textLength="19.4429" x="282.1436" y="560.6997">alt</text><text fill="#000000" font-family="Verdana" font-size="11" font-weight="bold" lengthAdjust="spacing" textLength="149.5581" x="346.5864" y="559.8433">[Schema already exists]</text><g class="message" data-entity-1="part6" data-entity-2="part2" id="msg13"><polygon fill="#000000" points="387.7822,581.8984,377.7822,585.8984,387.7822,589.8984,383.7822,585.8984" style="stroke:#000000;stroke-width:1;"/><line style="stroke:#000000;stroke-width:1;stroke-dasharray:2,2;" x1="381.7822" x2="1136.3848" y1="585.8984" y2="585.8984"/><text fill="#000000" font-family="Verdana" font-size="13" lengthAdjust="spacing" textLength="172.2563" x="393.7822" y="580.8325">Return existing schema ID</text></g><line style="stroke:#000000;stroke-width:1;stroke-dasharray:2,2;" x1="267.1436" x2="1468.8213" y1="594.8984" y2="594.8984"/><text fill="#000000" font-family="Verdana" font-size="11" font-weight="bold" lengthAdjust="spacing" textLength="87.957" x="272.1436" y="605.1089">[New schema]</text><g class="message" data-entity-1="part6" data-entity-2="part7" id="msg14"><polygon fill="#000000" points="1406.4331,625.8359,1416.4331,629.8359,1406.4331,633.8359,1410.4331,629.8359" style="stroke:#000000;stroke-width:1;"/><line style="stroke:#000000;stroke-width:1;" x1="1137.3848" x2="1412.4331" y1="629.8359" y2="629.8359"/><text fill="#000000" font-family="Verdana" font-size="13" lengthAdjust="spacing" textLength="118.333" x="1144.3848" y="624.77">Get subject config</text></g><g class="message" data-entity-1="part7" data-entity-2="part6" id="msg15"><polygon fill="#000000" points="1148.3848,654.9688,1138.3848,658.9688,1148.3848,662.9688,1144.3848,658.9688" style="stroke:#000000;stroke-width:1;"/><line style="stroke:#000000;stroke-width:1;stroke-dasharray:2,2;" x1="1142.3848" x2="1417.4331" y1="658.9688" y2="658.9688"/><text fill="#000000" font-family="Verdana" font-size="13" lengthAdjust="spacing" textLength="244.8037" x="1154.3848" y="653.9028">Compatibility level (e.g., BACKWARD)</text></g><g class="message" data-entity-1="part6" data-entity-2="part7" id="msg16"><polygon fill="#000000" points="1406.4331,684.1016,1416.4331,688.1016,1406.4331,692.1016,1410.4331,688.1016" style="stroke:#000000;stroke-width:1;"/><line style="stroke:#000000;stroke-width:1;" x1="1137.3848" x2="1412.4331" y1="688.1016" y2="688.1016"/><text fill="#000000" font-family="Verdana" font-size="13" lengthAdjust="spacing" textLength="141.686" x="1144.3848" y="683.0356">Get previous versions</text></g><g class="message" data-entity-1="part7" data-entity-2="part6" id="msg17"><polygon fill="#000000" points="1148.3848,713.2344,1138.3848,717.2344,1148.3848,721.2344,1144.3848,717.2344" style="stroke:#000000;stroke-width:1;"/><line style="stroke:#000000;stroke-width:1;stroke-dasharray:2,2;" x1="1142.3848" x2="1417.4331" y1="717.2344" y2="717.2344"/><text fill="#000000" font-family="Verdana" font-size="13" lengthAdjust="spacing" textLength="117.146" x="1154.3848" y="712.1685">Previous schemas</text></g><g class="message" data-entity-1="part6" data-entity-2="part5" id="msg18"><polygon fill="#000000" points="924.8994,742.3672,914.8994,746.3672,924.8994,750.3672,920.8994,746.3672" style="stroke:#000000;stroke-width:1;"/><line style="stroke:#000000;stroke-width:1;" x1="918.8994" x2="1136.3848" y1="746.3672" y2="746.3672"/><text fill="#000000" font-family="Verdana" font-size="13" lengthAdjust="spacing" textLength="128.6924" x="930.8994" y="741.3013">Check compatibility</text></g><g class="message" data-entity-1="part5" data-entity-2="part5" id="msg19"><line style="stroke:#000000;stroke-width:1;" x1="913.8994" x2="955.8994" y1="775.5" y2="775.5"/><line style="stroke:#000000;stroke-width:1;" x1="955.8994" x2="955.8994" y1="775.5" y2="788.5"/><line style="stroke:#000000;stroke-width:1;" x1="914.8994" x2="955.8994" y1="788.5" y2="788.5"/><polygon fill="#000000" points="924.8994,784.5,914.8994,788.5,924.8994,792.5,920.8994,788.5" style="stroke:#000000;stroke-width:1;"/><text fill="#000000" font-family="Verdana" font-size="13" lengthAdjust="spacing" textLength="209.4854" x="920.8994" y="770.4341">Compare with previous versions</text></g><g class="message" data-entity-1="part5" data-entity-2="part6" id="msg20"><polygon fill="#000000" points="1125.3848,813.6328,1135.3848,817.6328,1125.3848,821.6328,1129.3848,817.6328" style="stroke:#000000;stroke-width:1;"/><line style="stroke:#000000;stroke-width:1;stroke-dasharray:2,2;" x1="913.8994" x2="1131.3848" y1="817.6328" y2="817.6328"/><text fill="#000000" font-family="Verdana" font-size="13" lengthAdjust="spacing" textLength="171.7549" x="920.8994" y="812.5669">Compatible / Incompatible</text></g><path d="M277.1436,832.6328 L341.5864,832.6328 L341.5864,839.7656 L331.5864,849.7656 L277.1436,849.7656 L277.1436,832.6328" fill="#FFFFFF" style="stroke:#000000;stroke-width:1;"/><rect fill="none" height="148.4688" style="stroke:#000000;stroke-width:1;" width="1181.6777" x="277.1436" y="832.6328"/><text fill="#000000" font-family="Verdana" font-size="13" font-weight="bold" lengthAdjust="spacing" textLength="19.4429" x="292.1436" y="845.6997">alt</text><text fill="#000000" font-family="Verdana" font-size="11" font-weight="bold" lengthAdjust="spacing" textLength="80.5771" x="356.5864" y="844.8433">[Compatible]</text><g class="message" data-entity-1="part6" data-entity-2="part7" id="msg21"><polygon fill="#000000" points="1406.4331,866.8984,1416.4331,870.8984,1406.4331,874.8984,1410.4331,870.8984" style="stroke:#000000;stroke-width:1;"/><line style="stroke:#000000;stroke-width:1;" x1="1137.3848" x2="1412.4331" y1="870.8984" y2="870.8984"/><text fill="#000000" font-family="Verdana" font-size="13" lengthAdjust="spacing" textLength="172.3135" x="1144.3848" y="865.8325">Store new schema version</text></g><g class="message" data-entity-1="part7" data-entity-2="part6" id="msg22"><polygon fill="#000000" points="1148.3848,896.0313,1138.3848,900.0313,1148.3848,904.0313,1144.3848,900.0313" style="stroke:#000000;stroke-width:1;"/><line style="stroke:#000000;stroke-width:1;stroke-dasharray:2,2;" x1="1142.3848" x2="1417.4331" y1="900.0313" y2="900.0313"/><text fill="#000000" font-family="Verdana" font-size="13" lengthAdjust="spacing" textLength="101.2515" x="1154.3848" y="894.9653">New schema ID</text></g><g class="message" data-entity-1="part6" data-entity-2="part2" id="msg23"><polygon fill="#000000" points="387.7822,925.1641,377.7822,929.1641,387.7822,933.1641,383.7822,929.1641" style="stroke:#000000;stroke-width:1;"/><line style="stroke:#000000;stroke-width:1;stroke-dasharray:2,2;" x1="381.7822" x2="1136.3848" y1="929.1641" y2="929.1641"/><text fill="#000000" font-family="Verdana" font-size="13" lengthAdjust="spacing" textLength="168.0225" x="393.7822" y="924.0981">New schema ID + version</text></g><line style="stroke:#000000;stroke-width:1;stroke-dasharray:2,2;" x1="277.1436" x2="1458.8213" y1="938.1641" y2="938.1641"/><text fill="#000000" font-family="Verdana" font-size="11" font-weight="bold" lengthAdjust="spacing" textLength="90.9487" x="282.1436" y="948.3745">[Incompatible]</text><g class="message" data-entity-1="part6" data-entity-2="part2" id="msg24"><polygon fill="#000000" points="387.7822,969.1016,377.7822,973.1016,387.7822,977.1016,383.7822,973.1016" style="stroke:#000000;stroke-width:1;"/><line style="stroke:#000000;stroke-width:1;stroke-dasharray:2,2;" x1="381.7822" x2="1136.3848" y1="973.1016" y2="973.1016"/><text fill="#000000" font-family="Verdana" font-size="13" lengthAdjust="spacing" textLength="176.8457" x="393.7822" y="968.0356">409 Conflict + error details</text></g><g class="message" data-entity-1="part2" data-entity-2="part1" id="msg25"><polygon fill="#000000" points="91.2075,1012.2344,81.2075,1016.2344,91.2075,1020.2344,87.2075,1016.2344" style="stroke:#000000;stroke-width:1;"/><line style="stroke:#000000;stroke-width:1;stroke-dasharray:2,2;" x1="85.2075" x2="375.7822" y1="1016.2344" y2="1016.2344"/><text fill="#000000" font-family="Verdana" font-size="13" lengthAdjust="spacing" textLength="65.4189" x="97.2075" y="1011.1685">{"id": 42}</text></g><path d="M918,1029.2344 L918,1114.2344 L1137,1114.2344 L1137,1039.2344 L1127,1029.2344 L918,1029.2344" fill="#FFFFFF" style="stroke:#000000;stroke-width:1;"/><path d="M1127,1029.2344 L1127,1039.2344 L1137,1039.2344 L1127,1029.2344" fill="#FFFFFF" style="stroke:#000000;stroke-width:1;"/><text fill="#000000" font-family="Verdana" font-size="13" font-weight="bold" lengthAdjust="spacing" textLength="150.3823" x="924" y="1046.3013">Compatibility Modes</text><text fill="#000000" font-family="Verdana" font-size="13" lengthAdjust="spacing" textLength="198.1992" x="924" y="1061.4341">BACKWARD: New can read old</text><text fill="#000000" font-family="Verdana" font-size="13" lengthAdjust="spacing" textLength="190.3218" x="924" y="1076.5669">FORWARD: Old can read new</text><text fill="#000000" font-family="Verdana" font-size="13" lengthAdjust="spacing" textLength="138.3599" x="924" y="1091.6997">FULL: Both directions</text><ellipse cx="929.5" cy="1102.3984" fill="#000000" rx="2.5" ry="2.5"/><text fill="#000000" font-family="Verdana" font-size="13" lengthAdjust="spacing" textLength="166.207" x="936" y="1106.8325">_TRANSITIVE: All versions</text><!--SRC=[TLJRRXen47ttLqptYP00LTHMAW-L2BaK9Gq8IFfIgJAx0xWuzjRsXj0e_zxnUdU96ug4vFMSENFcudddrlY0a4ik5BCReN9k-0CiUBfP6LseRAYbDh1T2uUCEU4amYmb7mvJN0dh37T2AxYKUiiOEJkHYfmh1yarNsuuJ8pEYXHD0jn2AWKg5yDYjXqC9gCIotCH0mU5MyCtOfCO0FHza6h2ZQq2vkKnHWtrGqwY5q8AjuFX6jDDBQ-qnEX6rr0Rh506MSOTNt2B5DHfmrV1b2qO2pb2vulF0Fem6S_cqBF5uXUcplQUgzDBxn6DfTBP7-eviQNof0z9jzjDJg2wcEzoz9U3- -auUM6UqFFwGlJ1ruCYYPGx18E_2xIEbRPE4_oEieUMqHBxaE4ZIfsZEMg8IepdqKRyGMY5gFsjeMuViHeMYkXJyGS885RTlhRVSoaohyRkbEDFXo1NgD1uICgLLgHTmbARXqFG8PTf8JrsATGAJMu4rRKr-phed7xyTDIux2ljBx9QNwtUjukCeO-4hypbDPcp1HbljDuKEU0JGIXMXR6msBsEpGZRsJDUn6XeYILmjVDrawv-95mQvDakK5i6z0kH6zLJT8LH_yQ6qJb3ITM-nMqjUUzSoRv21zKuaK4jnQh4n3BZSPT-2A25tLNt1Cu6m-llW-avIJx8dHjy5BgmK8_g0Vf9ZQbg5bE55-LL-6TMVLPQAc09YA3-GEvRGQDyM4BjzJPBMayz6Acq-GnwV4VsaFBgJSR-8IEefjvro0OT9xvlZEzLpDWqDmB1SKHPjZUI-X-I3-y_atYrb8BwV0ne36ta31qNCfG3LSRyFuoybnXsK1-U4v7H0lbm-iAOqdvFYDNQWLxMkmwWtOudX3OisdQRBFLuX3JemOAVPT0o8-FbU1fiOvdjRLGzRxkxkUd3cQR-PSBGT5QDQ_-SJmUtiz5yT7z1UqVAVLT9FdY1x2y0]--></g></svg>